<svg xmlns="http://www.w3.org/2000/svg" width="166.45" height="54.447" viewBox="0 0 166.45 54.447"><defs><style>.a{fill:#231f20;}.b,.c{fill:#fff;}.c{font-size:18px;font-family:OpenSans-Bold, Open Sans;font-weight:700;}</style></defs><g transform="translate(-930 -2415)"><g transform="translate(930 2415)"><path class="a" d="M166.45,47.089a7.358,7.358,0,0,1-7.358,7.358H7.358A7.358,7.358,0,0,1,0,47.089V7.358A7.358,7.358,0,0,1,7.358,0H159.092a7.358,7.358,0,0,1,7.358,7.358Z"/><path class="b" d="M54.159,28.61H40.6a2.929,2.929,0,0,0-2.929,2.929V61.605A2.929,2.929,0,0,0,40.6,64.534H54.159a2.929,2.929,0,0,0,2.929-2.929V31.552a2.929,2.929,0,0,0-2.929-2.942ZM47.381,62.373a1.953,1.953,0,1,1,1.953-1.953,1.953,1.953,0,0,1-1.953,1.953Zm7.41-4.881H39.968V35.343H54.791Z" transform="translate(-25.411 -19.3)"/><path class="b" d="M127.621,33.788l-.814,2.5H125.75l2.685-7.934h1.237l2.708,7.934h-1.1l-.846-2.5Zm2.6-.8-.788-2.278c-.166-.521-.283-.976-.4-1.448H129c-.107.459-.238.954-.391,1.435l-.775,2.3Z" transform="translate(-84.827 -19.124)"/><path class="b" d="M147.1,35.2l1.116,3.183c.189.53.342,1,.462,1.471h.033c.13-.472.3-.94.485-1.471L150.3,35.19h1.084l-2.239,5.7h-.976L146,35.2Z" transform="translate(-98.488 -23.738)"/><path class="b" d="M167.952,39.345a9.568,9.568,0,0,0,.081,1.364h-.927l-.1-.716h-.033a2.109,2.109,0,0,1-1.744.846,1.627,1.627,0,0,1-1.741-1.627c0-1.377,1.224-2.132,3.427-2.119v-.117a1.155,1.155,0,0,0-1.3-1.3,2.753,2.753,0,0,0-1.5.423l-.234-.7a3.707,3.707,0,0,1,1.884-.491c1.754,0,2.177,1.188,2.177,2.33ZM166.94,37.8c-1.132-.023-2.415.176-2.415,1.282a.908.908,0,0,0,.976.976,1.438,1.438,0,0,0,1.4-.953,1.061,1.061,0,0,0,.049-.325Z" transform="translate(-110.286 -23.549)"/><path class="b" d="M182.359,29.3a.717.717,0,1,1,.013,0Zm-.495,6.746v-5.7H182.9v5.7Z" transform="translate(-122.597 -18.89)"/><path class="b" d="M190.4,27.05h1.038v8.357H190.4Z" transform="translate(-128.439 -18.247)"/><path class="b" d="M201.752,39.345a9.536,9.536,0,0,0,.085,1.364h-.931l-.094-.716h-.036a2.109,2.109,0,0,1-1.744.846,1.627,1.627,0,0,1-1.741-1.627c0-1.377,1.224-2.132,3.427-2.119v-.117a1.155,1.155,0,0,0-1.3-1.3,2.74,2.74,0,0,0-1.494.423l-.238-.7a3.713,3.713,0,0,1,1.884-.491c1.754,0,2.177,1.188,2.177,2.33ZM200.74,37.8c-1.129-.023-2.415.176-2.415,1.282a.908.908,0,0,0,.976.976,1.442,1.442,0,0,0,1.4-.954,1.055,1.055,0,0,0,.046-.325Z" transform="translate(-133.086 -23.549)"/><path class="b" d="M215.846,27.05h1.035v3.563h.026a2.112,2.112,0,0,1,1.953-1.035c1.412,0,2.4,1.175,2.4,2.9,0,2.047-1.3,3.059-2.568,3.059a2.044,2.044,0,0,1-1.907-1.071h-.023l-.062.94h-.9c.036-.387.046-.976.046-1.471Zm1.035,6.076a1.757,1.757,0,0,0,.039.374,1.6,1.6,0,0,0,1.549,1.214c1.1,0,1.731-.882,1.731-2.19,0-1.155-.589-2.132-1.7-2.132a1.627,1.627,0,0,0-1.565,1.272,1.6,1.6,0,0,0-.062.436Z" transform="translate(-145.573 -18.247)"/><path class="b" d="M236.34,27.05h1.038v8.357H236.34Z" transform="translate(-159.428 -18.247)"/><path class="b" d="M244.383,37.956a1.818,1.818,0,0,0,1.953,1.979,3.934,3.934,0,0,0,1.578-.283l.186.729a4.6,4.6,0,0,1-1.907.368,2.66,2.66,0,0,1-2.8-2.874,2.794,2.794,0,0,1,2.685-3.085,2.4,2.4,0,0,1,2.343,2.685,2.729,2.729,0,0,1-.036.495Zm3.023-.742a1.483,1.483,0,0,0-1.425-1.682,1.717,1.717,0,0,0-1.588,1.682Z" transform="translate(-164.184 -23.468)"/><path class="b" d="M271.524,40.792a2.715,2.715,0,0,1-2.734-2.929,2.789,2.789,0,0,1,2.828-3.023,2.7,2.7,0,0,1,2.74,2.929,2.791,2.791,0,0,1-2.825,3.036Zm.033-.775c.976,0,1.731-.931,1.731-2.226,0-.976-.482-2.18-1.705-2.18s-1.748,1.132-1.748,2.21c0,1.25.706,2.193,1.708,2.193Z" transform="translate(-181.318 -23.502)"/><path class="b" d="M289.639,36.538A14.994,14.994,0,0,0,289.59,35h.921l.059.931h.023a2.112,2.112,0,0,1,1.881-1.058c.791,0,2.018.469,2.018,2.424v3.388h-1.038V37.4c0-.918-.325-1.7-1.3-1.7a1.49,1.49,0,0,0-1.39,1.061,1.471,1.471,0,0,0-.072.482v3.437h-1.035Z" transform="translate(-195.349 -23.521)"/><path class="b" d="M317.067,31v1.364h1.481v.791h-1.481v3.072c0,.706.2,1.106.775,1.106a1.888,1.888,0,0,0,.6-.072l.046.791a2.877,2.877,0,0,1-.914.14,1.5,1.5,0,0,1-1.123-.433,2.261,2.261,0,0,1-.4-1.5v-3.1h-.885v-.791h.885V31.325Z" transform="translate(-212.605 -20.912)"/><path class="b" d="M328.92,27.05h1.035v3.563h.023a1.862,1.862,0,0,1,.742-.729,2.011,2.011,0,0,1,1.061-.293c.765,0,1.988.469,1.988,2.437v3.378h-1.035V32.153c0-.931-.342-1.7-1.321-1.7a1.5,1.5,0,0,0-1.386,1.038,1.25,1.25,0,0,0-.072.495v3.42H328.92Z" transform="translate(-221.88 -18.247)"/><path class="b" d="M348.529,37.977a1.82,1.82,0,0,0,1.953,1.979,3.935,3.935,0,0,0,1.578-.283l.172.739a4.637,4.637,0,0,1-1.91.368,2.66,2.66,0,0,1-2.8-2.874A2.794,2.794,0,0,1,350.2,34.82a2.4,2.4,0,0,1,2.346,2.685,2.726,2.726,0,0,1-.036.495Zm3.026-.742a1.483,1.483,0,0,0-1.425-1.682,1.715,1.715,0,0,0-1.588,1.682Z" transform="translate(-234.427 -23.489)"/><path class="b" d="M374.417,29.248a.664.664,0,0,1,.023-1.328.664.664,0,1,1-.016,1.328Zm-.5,6.746V30.3h1.038v5.7Z" transform="translate(-252.131 -18.834)"/><path class="b" d="M382.63,28.332a10.869,10.869,0,0,1,1.969-.163,3.288,3.288,0,0,1,2.223.651,2.138,2.138,0,0,1,.709,1.66,2.3,2.3,0,0,1-.625,1.692,3.285,3.285,0,0,1-2.428.872,3.759,3.759,0,0,1-.823-.068v3.176H382.63Zm1.025,3.817a3.544,3.544,0,0,0,.849.081c1.246,0,1.988-.612,1.988-1.682s-.742-1.565-1.871-1.565a5.207,5.207,0,0,0-.976.081Z" transform="translate(-258.112 -19.002)"/><path class="b" d="M401.41,27.05h1.038v3.563h.023a1.861,1.861,0,0,1,.758-.739,2.008,2.008,0,0,1,1.058-.293c.768,0,1.992.469,1.992,2.437v3.388h-1.035V32.153c0-.931-.342-1.7-1.321-1.7a1.5,1.5,0,0,0-1.39,1.038,1.255,1.255,0,0,0-.068.495v3.42h-1.038Z" transform="translate(-270.78 -18.247)"/><path class="b" d="M422.774,40.792a2.715,2.715,0,0,1-2.734-2.929,2.789,2.789,0,0,1,2.828-3.023,2.7,2.7,0,0,1,2.74,2.929,2.791,2.791,0,0,1-2.825,3.036Zm.036-.775c.976,0,1.728-.931,1.728-2.226,0-.976-.482-2.18-1.705-2.18s-1.744,1.132-1.744,2.213c0,1.25.706,2.193,1.708,2.193Z" transform="translate(-283.348 -23.502)"/><path class="b" d="M440.906,36.538c0-.6,0-1.071-.046-1.543h.918l.059.931h.023a2.118,2.118,0,0,1,1.884-1.058c.788,0,2.011.469,2.011,2.424v3.388H444.72V37.4c0-.918-.325-1.7-1.3-1.7a1.494,1.494,0,0,0-1.39,1.061,1.562,1.562,0,0,0-.072.482v3.437h-1.051Z" transform="translate(-297.392 -23.521)"/><path class="b" d="M460.633,37.956a1.821,1.821,0,0,0,1.953,1.979,3.928,3.928,0,0,0,1.575-.283l.189.729a4.6,4.6,0,0,1-1.907.368,2.66,2.66,0,0,1-2.8-2.874,2.794,2.794,0,0,1,2.685-3.085,2.4,2.4,0,0,1,2.343,2.685,2.729,2.729,0,0,1-.036.495Zm3.026-.742a1.483,1.483,0,0,0-1.425-1.682,1.715,1.715,0,0,0-1.588,1.682Z" transform="translate(-310.061 -23.468)"/><path class="b" d="M131.993,69.25,125,89.8h3.2l2.083-6.307h6.759l2.141,6.307h3.287l-7-20.547Zm1.656,3.378c.238.918.491,1.871.817,2.9l1.881,5.448h-5.353l1.855-5.483C133.136,74.6,133.4,73.643,133.65,72.628Z" transform="translate(-84.322 -46.714)"/><path class="b" d="M190.081,85.62a5.814,5.814,0,0,0-4.943,2.372l-.124-2.047H182.17l.016.264c.085,1.272.12,2.675.12,4.686v15.839h3.108v-7.39a5.467,5.467,0,0,0,4.25,1.826,6.408,6.408,0,0,0,4.712-2,8.5,8.5,0,0,0,2.079-5.978,8.276,8.276,0,0,0-1.806-5.461A5.916,5.916,0,0,0,190.081,85.62Zm-.775,2.574c2.769,0,4.013,2.568,4.013,5.109,0,3.284-1.585,5.321-4.13,5.321a3.768,3.768,0,0,1-3.664-2.883,4.007,4.007,0,0,1-.111-1.009v-2.5a4.663,4.663,0,0,1,.1-.768,1.61,1.61,0,0,1,.042-.251A3.938,3.938,0,0,1,189.307,88.194Z" transform="translate(-122.887 -57.757)"/><path class="b" d="M239.278,85.62a5.822,5.822,0,0,0-4.943,2.372l-.124-2.047H231.37v.264c.085,1.272.117,2.675.117,4.686v15.839H234.6v-7.39a5.457,5.457,0,0,0,4.231,1.826,6.421,6.421,0,0,0,4.715-2,8.5,8.5,0,0,0,2.079-5.978,8.26,8.26,0,0,0-1.809-5.461,5.913,5.913,0,0,0-4.536-2.106Zm-.771,2.574c2.769,0,4.009,2.568,4.009,5.109,0,3.284-1.582,5.321-4.13,5.321a3.765,3.765,0,0,1-3.661-2.884,4.007,4.007,0,0,1-.11-1.008v-2.5a4.554,4.554,0,0,1,.1-.768c.016-.085.033-.169.046-.251a3.934,3.934,0,0,1,3.749-3.02Z" transform="translate(-156.076 -57.757)"/><path class="b" d="M301.96,77.247c-2.9-1.126-3.83-2.008-3.83-3.642,0-1.373,1.093-2.76,3.534-2.76a7.065,7.065,0,0,1,3.648.914l.267.163.875-2.6-.173-.1a8.989,8.989,0,0,0-4.527-1.019c-3.967,0-6.736,2.343-6.736,5.692.01,2.7,1.735,4.6,5.457,5.959,2.639.976,3.622,1.995,3.622,3.726,0,1.953-1.516,3.176-3.954,3.176a8.526,8.526,0,0,1-4.481-1.269l-.267-.172-.836,2.655.153.1a10.651,10.651,0,0,0,5.256,1.351c5.344,0,7.238-3.254,7.238-6.05C307.206,80.5,305.686,78.718,301.96,77.247Z" transform="translate(-198.702 -46.006)"/><path class="b" d="M339.672,75.75l-3.049.957v2.581H334.39v2.486h2.232v7.612A5.829,5.829,0,0,0,337.7,93.33a3.993,3.993,0,0,0,3.01,1.181,7.286,7.286,0,0,0,2.4-.371l.176-.062-.15-2.49-.3.091a4.689,4.689,0,0,1-1.445.166c-1.2,0-1.718-.761-1.718-2.551V81.774h3.749V79.287h-3.749Z" transform="translate(-225.57 -51.099)"/><path class="b" d="M370.5,85.613c-4.351,0-7.39,3.254-7.39,7.895,0,4.507,2.929,7.654,7.159,7.654h.029c3.56,0,7.387-2.48,7.387-7.924a7.867,7.867,0,0,0-1.979-5.5A6.922,6.922,0,0,0,370.5,85.613Zm-.091,2.454c2.8,0,4.071,2.727,4.071,5.262,0,3.118-1.738,5.379-4.13,5.379h-.029c-2.359,0-4.071-2.226-4.071-5.291C366.25,90.755,367.536,88.067,370.409,88.067Z" transform="translate(-244.944 -57.75)"/><path class="b" d="M421.078,85.763l-.189-.046a2.984,2.984,0,0,0-.771-.1,4.432,4.432,0,0,0-3.905,2.5l-.091-2.177H413.33l.02.264c.081,1.23.117,2.6.117,4.478l-.029,10.153h3.111V92.919a8.171,8.171,0,0,1,.085-1.207,3.431,3.431,0,0,1,3.271-3.134,7.813,7.813,0,0,1,.833.055l.325.033Z" transform="translate(-278.821 -57.757)"/><path class="b" d="M444.036,85.53c-4.139,0-7.036,3.306-7.036,8.041,0,4.556,2.877,7.508,7.329,7.508a11.956,11.956,0,0,0,4.924-.944l.186-.085-.592-2.327-.26.1a9.642,9.642,0,0,1-3.905.7,4.323,4.323,0,0,1-4.657-4.507l10.036.029.039-.2a7.023,7.023,0,0,0,.094-1.3C450.2,89.318,448.585,85.53,444.036,85.53Zm-.2,2.366a3.069,3.069,0,0,1,2.278.869,4.425,4.425,0,0,1,1.071,2.9h-7.091C440.378,89.865,441.5,87.9,443.834,87.9Z" transform="translate(-294.788 -57.696)"/></g><rect class="a" width="125" height="29" transform="translate(968 2435.452)"/><text class="c" transform="translate(968 2457.452)"><tspan x="0" y="0">App Store</tspan></text></g></svg>