<?xml version="1.0" encoding="utf-8"?>
<!-- Generator: Adobe Illustrator 22.1.0, SVG Export Plug-In . SVG Version: 6.00 Build 0)  -->
<svg version="1.1" id="Layer_1" xmlns="http://www.w3.org/2000/svg" xmlns:xlink="http://www.w3.org/1999/xlink" x="0px" y="0px"
	 viewBox="0 0 19 24.5" style="enable-background:new 0 0 19 24.5;" xml:space="preserve">
<style type="text/css">
	.st0{fill:#FFFFFF;}
</style>
<g transform="translate(-42.493 6)">
	<g transform="translate(51.493)">
		<g transform="translate(0)">
			<g transform="matrix(1, 0, 0, 1, -9, -6)">
				<path class="st0" d="M6.6,21.6C6.6,21.6,6.6,21.6,6.6,21.6c0,1.6,1.3,2.9,2.9,2.9s2.9-1.3,2.9-2.9c0,0,0,0,0,0H6.6z"/>
			</g>
			<g transform="matrix(1, 0, 0, 1, -9, -6)">
				<path class="st0" d="M18.8,17.9l-2.6-3.8V9.3c0-3.2-2.2-5.9-5.4-6.5V1.3c0-0.7-0.6-1.3-1.3-1.3C8.8,0,8.2,0.6,8.2,1.3v1.5
					C5.1,3.4,2.8,6.1,2.8,9.3v4.8l-2.6,3.8c-0.4,0.6-0.3,1.4,0.3,1.8C0.8,19.9,1.1,20,1.3,20h16.4c0.7,0,1.3-0.6,1.3-1.3
					C19,18.4,18.9,18.2,18.8,17.9L18.8,17.9z"/>
			</g>
		</g>
	</g>
</g>
</svg>
