<svg xmlns="http://www.w3.org/2000/svg" width="17.453" height="21.319" viewBox="0 0 17.453 21.319"><defs><style>.a{fill:#43a047;}</style></defs><g transform="translate(-42.56)"><g transform="translate(42.56)"><g transform="translate(0)"><path class="a" d="M193.831,5.814a1.939,1.939,0,0,0,1.662-2.936L193.831,0l-1.662,2.878a1.939,1.939,0,0,0,1.662,2.936Z" transform="translate(-185.11)"/><path class="a" d="M57.1,151.271H52.25v-1.938H50.312v1.938H45.467a2.909,2.909,0,0,0-2.907,2.907v1.492a1.9,1.9,0,0,0,3.241,1.342l2.074-2.069,2.069,2.064a1.943,1.943,0,0,0,2.684,0l2.074-2.064,2.069,2.064a1.9,1.9,0,0,0,3.241-1.342v-1.487A2.924,2.924,0,0,0,57.1,151.271Z" transform="translate(-42.56 -142.55)"/><path class="a" d="M55.734,319.122h0l-1.042-1.042-1.047,1.042a3.434,3.434,0,0,1-4.739,0l-1.042-1.042-1.047,1.042a3.285,3.285,0,0,1-2.36.984,3.346,3.346,0,0,1-1.9-.6v4.472a.972.972,0,0,0,.969.969h15.5a.972.972,0,0,0,.969-.969v-4.472a3.336,3.336,0,0,1-4.269-.388Z" transform="translate(-42.56 -303.632)"/></g></g></g></svg>