<svg xmlns="http://www.w3.org/2000/svg" width="15" height="17.73" viewBox="0 0 15 17.73"><defs><style>.a{opacity:0.2;}</style></defs><g class="a"><path d="M48.033.586a1.321,1.321,0,0,0-.615-.481A1.3,1.3,0,0,0,46.9,0H34.62A1.3,1.3,0,0,0,34.1.105a1.32,1.32,0,0,0-.615.481,1.243,1.243,0,0,0-.229.727V16.418a1.244,1.244,0,0,0,.229.727,1.32,1.32,0,0,0,.615.48,1.3,1.3,0,0,0,.516.105,1.4,1.4,0,0,0,.973-.387l5.168-4.969,5.168,4.969a1.4,1.4,0,0,0,.973.375,1.363,1.363,0,0,0,1.131-.574,1.243,1.243,0,0,0,.228-.726V1.313A1.244,1.244,0,0,0,48.033.586Z" transform="translate(-33.261)"/></g></svg>