<svg xmlns="http://www.w3.org/2000/svg" width="20" height="19.987" viewBox="0 0 20 19.987"><defs><style>.a{fill:#43a047;}</style></defs><g transform="translate(0 -0.188)"><g transform="translate(0 0.188)"><path class="a" d="M19.99,15.962a.967.967,0,0,1-.3.847L16.878,19.6a1.585,1.585,0,0,1-.5.36,2.056,2.056,0,0,1-.6.191q-.021,0-.127.011t-.275.011a9.761,9.761,0,0,1-1.3-.138,9.889,9.889,0,0,1-2.2-.678,18.483,18.483,0,0,1-2.954-1.62A22.021,22.021,0,0,1,5.4,14.776a23.2,23.2,0,0,1-2.456-2.795A19.913,19.913,0,0,1,1.38,9.515,13.285,13.285,0,0,1,.49,7.461a10.9,10.9,0,0,1-.4-1.588A5.244,5.244,0,0,1,0,4.825Q.025,4.444.025,4.4a2.058,2.058,0,0,1,.191-.6,1.587,1.587,0,0,1,.36-.5L3.391.484a.933.933,0,0,1,.678-.3.79.79,0,0,1,.487.159,1.472,1.472,0,0,1,.36.392l2.265,4.3a1.03,1.03,0,0,1,.106.741,1.32,1.32,0,0,1-.36.678L5.89,7.493a.353.353,0,0,0-.074.138.522.522,0,0,0-.032.159,3.823,3.823,0,0,0,.381,1.016,9.329,9.329,0,0,0,.783,1.239,13.752,13.752,0,0,0,1.5,1.683,14.024,14.024,0,0,0,1.694,1.514,9.781,9.781,0,0,0,1.239.794,3.292,3.292,0,0,0,.762.307l.265.053a.5.5,0,0,0,.138-.032.354.354,0,0,0,.138-.074l1.207-1.228a1.3,1.3,0,0,1,.889-.339,1.106,1.106,0,0,1,.572.127h.021l4.086,2.414A1.065,1.065,0,0,1,19.99,15.962Z" transform="translate(0 -0.188)"/></g></g></svg>