<svg xmlns="http://www.w3.org/2000/svg" width="15.331" height="15.331" viewBox="0 0 15.331 15.331"><defs><style>.a{opacity:0.7;}.b{fill:#3e3e3e;}</style></defs><g class="a"><circle class="b" cx="0.511" cy="0.511" r="0.511" transform="translate(7.154 7.123)"/><path class="b" d="M7.665,0a7.665,7.665,0,1,0,7.665,7.665A7.674,7.674,0,0,0,7.665,0ZM7.41,2.013a.256.256,0,0,1,.511,0v.256a.256.256,0,0,1-.511,0ZM2.3,7.89H2.044a.256.256,0,1,1,0-.511H2.3a.256.256,0,1,1,0,.511Zm1.752,3.72-.181.181a.255.255,0,1,1-.361-.361l.181-.181a.255.255,0,1,1,.361.361Zm0-7.589a.255.255,0,0,1-.361,0L3.51,3.84a.255.255,0,0,1,.361-.361l.181.181A.255.255,0,0,1,4.052,4.021Zm3.869,9.235a.256.256,0,1,1-.511,0V13a.256.256,0,0,1,.511,0Zm-.256-4.6A1.021,1.021,0,0,1,6.68,7.89H4.855a.256.256,0,1,1,0-.511H6.68a1.021,1.021,0,0,1,.73-.73V4.057a.256.256,0,0,1,.511,0V6.649a1.02,1.02,0,0,1-.256,2.008Zm4.155,3.134a.255.255,0,0,1-.361,0l-.181-.181a.255.255,0,0,1,.361-.361l.181.181A.255.255,0,0,1,11.821,11.79Zm0-7.95-.181.181a.255.255,0,0,1-.361-.361l.181-.181a.255.255,0,1,1,.361.361Zm1.466,4.05h-.256a.256.256,0,0,1,0-.511h.256a.256.256,0,0,1,0,.511Z"/></g></svg>