<?xml version="1.0" encoding="utf-8"?>
<!-- Generator: Adobe Illustrator 22.1.0, SVG Export Plug-In . SVG Version: 6.00 Build 0)  -->
<svg version="1.1" id="Layer_1" xmlns="http://www.w3.org/2000/svg" xmlns:xlink="http://www.w3.org/1999/xlink" x="0px" y="0px"
	 viewBox="0 0 152 152" style="enable-background:new 0 0 152 152;" xml:space="preserve">
<style type="text/css">
	.st0{fill:#F5F5F5;}
	.st1{opacity:0.25;}
	.st2{fill:#3E3E3E;}
	.st3{font-family:'Manrope3-Semibold';}
	.st4{font-size:10px;}
</style>
<g>
	<rect class="st0" width="152" height="152"/>
	<g>
		<g transform="translate(0 -54.821)" class="st1">
			<g transform="translate(0 54.821)">
				<path d="M99.8,41.2C99,40.4,98,40,96.9,40H56.1c-1.1,0-2.1,0.4-2.9,1.2C52.4,41.9,52,43,52,44.1v31c0,1.1,0.4,2.1,1.2,2.9
					c0.8,0.8,1.8,1.2,2.9,1.2h40.8c2.3,0,4.1-1.8,4.1-4.1v-31C101,43,100.6,41.9,99.8,41.2z M97.7,75.1c0,0.4-0.4,0.8-0.8,0.8H56.1
					c-0.4,0-0.8-0.4-0.8-0.8v-31c0-0.4,0.4-0.8,0.8-0.8h40.8c0.4,0,0.8,0.4,0.8,0.8L97.7,75.1L97.7,75.1z"/>
				<path d="M63.4,56.3c2.7,0,4.9-2.2,4.9-4.9s-2.2-4.9-4.9-4.9c-2.7,0-4.9,2.2-4.9,4.9c0,1.3,0.5,2.5,1.4,3.4
					C60.9,55.8,62.1,56.3,63.4,56.3z"/>
				<path d="M70.8,63.7l-4.1-4.1l-8.2,8.2v4.9h35.9V61.2L83.8,50.6L70.8,63.7z"/>
			</g>
		</g>
		<text transform="matrix(1 0 0 1 52 95)" class="st1"><tspan x="0" y="0" class="st2 st3 st4"> No Image </tspan><tspan x="0" y="12" class="st2 st3 st4">Uploaded</tspan></text>
	</g>
</g>
</svg>
