<svg xmlns="http://www.w3.org/2000/svg" width="7.253" height="13.416" viewBox="0 0 7.253 13.416"><defs><style>.a{fill:#fff;}</style></defs><path class="a" d="M29.057,0l-1.74,0A3.055,3.055,0,0,0,24.1,3.3V4.824H22.351a.274.274,0,0,0-.274.274V7.3a.274.274,0,0,0,.274.274H24.1v5.565a.273.273,0,0,0,.274.274h2.282a.274.274,0,0,0,.274-.274V7.577h2.045a.273.273,0,0,0,.274-.274V5.1a.274.274,0,0,0-.274-.274H26.929V3.533c0-.62.148-.935.956-.935h1.172a.274.274,0,0,0,.273-.274V.276A.274.274,0,0,0,29.057,0Z" transform="translate(-22.077)"/></svg>