<svg xmlns="http://www.w3.org/2000/svg" width="108.586" height="113" viewBox="0 0 108.586 113"><defs><style>.a{fill:#ddd;}.b{fill:#c4c4c4;}.c{fill:#ff9d4d;}.d{fill:#e28844;}.e{fill:#ffe164;}.f{fill:#fcd09f;}.g{fill:#b75700;}.h{fill:#d37631;}</style></defs><path class="a" d="M71.717,153.418H22.5V142.6a1.1,1.1,0,0,1,1.1-1.1H62.889a8.829,8.829,0,0,1,8.828,8.828Zm0,0" transform="translate(-17.534 -110.271)"/><path class="a" d="M246.5,153.418h49.217V142.6a1.1,1.1,0,0,0-1.1-1.1H255.328a8.829,8.829,0,0,0-8.828,8.828Zm0,0" transform="translate(-192.097 -110.271)"/><path class="b" d="M442.225,142.6v10.814H435.6V142.6a1.1,1.1,0,0,0-1.1-1.1h6.621A1.1,1.1,0,0,1,442.225,142.6Zm0,0" transform="translate(-338.604 -110.271)"/><path class="c" d="M111.672,185.5H8.6a1.1,1.1,0,0,0-1.1,1.1v61.8a4.414,4.414,0,0,0,4.414,4.414h96.447a4.414,4.414,0,0,0,4.414-4.414V186.6A1.1,1.1,0,0,0,111.672,185.5Zm0,0" transform="translate(-5.845 -144.56)"/><path class="d" d="M213.5,185.5v67.756a2.648,2.648,0,0,0,2.648,2.648H225.2a2.648,2.648,0,0,0,2.648-2.648V185.5Zm0,0" transform="translate(-166.38 -144.56)"/><g transform="translate(17.631 1.655)"><path class="e" d="M207.139,7.745l3.1,6.274a.439.439,0,0,0,.33.239l6.923,1.006a.438.438,0,0,1,.242.747l-5.01,4.883a.441.441,0,0,0-.126.388l1.183,6.9a.438.438,0,0,1-.635.461l-6.193-3.255a.436.436,0,0,0-.407,0l-6.193,3.255a.438.438,0,0,1-.635-.461l1.182-6.9a.439.439,0,0,0-.126-.388l-5.01-4.883a.438.438,0,0,1,.243-.747l6.923-1.006a.435.435,0,0,0,.329-.239l3.1-6.274A.437.437,0,0,1,207.139,7.745Zm0,0" transform="translate(-170.085 -7.501)"/><path class="e" d="M352.563,38.8l1.911,3.989a.441.441,0,0,0,.333.246l4.293.642a.442.442,0,0,1,.247.748l-3.123,3.136a.442.442,0,0,0-.122.384l.735,4.415a.442.442,0,0,1-.646.461l-3.816-2.067a.442.442,0,0,0-.42,0l-3.816,2.067a.442.442,0,0,1-.646-.461l.735-4.415a.437.437,0,0,0-.122-.384l-3.123-3.136a.442.442,0,0,1,.247-.748l4.293-.642a.441.441,0,0,0,.333-.246l1.911-3.989A.441.441,0,0,1,352.563,38.8Zm0,0" transform="translate(-286.374 -31.694)"/><path class="e" d="M86.8,38.8l-1.91,3.989a.442.442,0,0,1-.333.246l-4.293.642a.441.441,0,0,0-.247.748l3.123,3.136a.44.44,0,0,1,.123.384l-.735,4.415a.442.442,0,0,0,.646.461l3.816-2.067a.444.444,0,0,1,.421,0l3.816,2.067a.442.442,0,0,0,.646-.461l-.735-4.415a.442.442,0,0,1,.122-.384l3.123-3.136a.441.441,0,0,0-.247-.748l-4.293-.642a.442.442,0,0,1-.333-.246L87.6,38.8A.442.442,0,0,0,86.8,38.8Zm0,0" transform="translate(-79.886 -31.694)"/></g><path class="f" d="M342.412,244.115H314.6a1.1,1.1,0,0,1-1.1-1.1V221.6a1.1,1.1,0,0,1,1.1-1.1h27.809a1.1,1.1,0,0,1,1.1,1.1v21.408A1.1,1.1,0,0,1,342.412,244.115Zm0,0" transform="translate(-244.31 -171.835)"/><path class="g" d="M341.86,353.311H315.155a1.655,1.655,0,0,1,0-3.311H341.86a1.655,1.655,0,0,1,0,3.311Zm0,0" transform="translate(-244.31 -272.754)"/><path class="g" d="M333.253,382.311h-18.1a1.655,1.655,0,0,1,0-3.311h18.1a1.655,1.655,0,0,1,0,3.311Zm0,0" transform="translate(-244.31 -295.354)"/><path class="h" d="M445.535,186.6v61.8a4.413,4.413,0,0,1-4.414,4.414H434.5a4.413,4.413,0,0,0,4.414-4.414V186.6a1.1,1.1,0,0,0-1.1-1.1h6.621A1.1,1.1,0,0,1,445.535,186.6Zm0,0" transform="translate(-338.604 -144.56)"/><path d="M105.827,143.711h-.552v-6.952A2.761,2.761,0,0,0,102.517,134H63.231a10.486,10.486,0,0,0-8.938,5.012A10.486,10.486,0,0,0,45.354,134H6.069a2.761,2.761,0,0,0-2.759,2.759v6.952H2.759A2.761,2.761,0,0,0,0,146.47v46.679a1.655,1.655,0,0,0,3.311,0V147.021H39.4a1.655,1.655,0,0,0,0-3.311H6.621v-6.4H45.354a7.182,7.182,0,0,1,7.131,6.4H47.12a1.655,1.655,0,0,0-1.655,1.655v65.659H6.069a2.761,2.761,0,0,1-2.759-2.759v-7.394a1.655,1.655,0,0,0-3.311,0v7.394a6.076,6.076,0,0,0,6.069,6.069H45.642a4.308,4.308,0,0,0,4.126,3.09h9.049a4.308,4.308,0,0,0,4.126-3.09h39.573a6.076,6.076,0,0,0,6.069-6.069v-61.8A2.761,2.761,0,0,0,105.827,143.711Zm-42.6-6.4h38.733v6.4H56.1A7.182,7.182,0,0,1,63.231,137.311Zm-3.421,75.812a1,1,0,0,1-.993.993H49.769a1,1,0,0,1-.993-.993v-66.1H59.811Zm45.465-4.855a2.761,2.761,0,0,1-2.759,2.759h-39.4v-64h42.154Zm0,0" transform="translate(0 -104.426)"/><path d="M193.312,15.786l-1.073,6.263a2.093,2.093,0,0,0,3.036,2.207L200.9,21.3l5.625,2.957a2.078,2.078,0,0,0,2.2-.159,2.078,2.078,0,0,0,.832-2.047l-1.073-6.264,4.55-4.436a2.093,2.093,0,0,0-1.16-3.57l-6.29-.914-2.812-5.7a2.093,2.093,0,0,0-3.754,0l-2.812,5.7-6.29.914a2.093,2.093,0,0,0-1.16,3.57Zm4.008-5.737A2.09,2.09,0,0,0,198.9,8.9l2-4.061,2,4.061a2.091,2.091,0,0,0,1.576,1.144l4.481.652-3.244,3.161a2.1,2.1,0,0,0-.6,1.852l.766,4.464-4.009-2.108a2.1,2.1,0,0,0-1.948,0l-4.008,2.108.766-4.464a2.093,2.093,0,0,0-.6-1.852L192.839,10.7Zm0,0" transform="translate(-146.607)"/><path d="M340.648,42.441l-.633,3.8a2.094,2.094,0,0,0,3.067,2.188l3.238-1.754,3.238,1.754a2.1,2.1,0,0,0,3.067-2.188l-.633-3.8,2.684-2.695a2.1,2.1,0,0,0-1.175-3.554l-3.657-.547-1.632-3.407a2.1,2.1,0,0,0-3.782,0L342.8,35.645l-3.657.547a2.1,2.1,0,0,0-1.175,3.554Zm3.275-3.617a2.093,2.093,0,0,0,1.58-1.167l.816-1.7.815,1.7a2.093,2.093,0,0,0,1.581,1.169l1.919.288-1.43,1.435a2.106,2.106,0,0,0-.582,1.823l.328,1.966-1.632-.885a2.09,2.09,0,0,0-2,0l-1.633.885.327-1.965a2.1,2.1,0,0,0-.582-1.825L342,39.11Zm0,0" transform="translate(-262.898 -24.195)"/><path d="M75.681,42.441l-.633,3.8a2.094,2.094,0,0,0,3.067,2.188l3.238-1.754,3.238,1.754a2.1,2.1,0,0,0,3.067-2.188l-.633-3.8,2.684-2.695a2.1,2.1,0,0,0-1.175-3.554l-3.657-.547-1.632-3.408a2.1,2.1,0,0,0-3.782,0l-1.632,3.408-3.657.547A2.1,2.1,0,0,0,73,39.746Zm3.275-3.617a2.093,2.093,0,0,0,1.58-1.167l.816-1.7.815,1.7a2.091,2.091,0,0,0,1.581,1.169l1.919.288-1.43,1.435a2.1,2.1,0,0,0-.582,1.823l.328,1.966-1.633-.885a2.087,2.087,0,0,0-2,0l-1.633.885.328-1.965a2.1,2.1,0,0,0-.583-1.825l-1.429-1.435Zm0,0" transform="translate(-56.41 -24.195)"/><path d="M308.759,239.926h27.809a2.761,2.761,0,0,0,2.759-2.759V215.759A2.761,2.761,0,0,0,336.567,213H308.759A2.761,2.761,0,0,0,306,215.759v21.408A2.761,2.761,0,0,0,308.759,239.926Zm.552-23.615h26.705v20.3H309.311Zm0,0" transform="translate(-238.465 -165.99)"/><path d="M337.392,350H307.155a1.655,1.655,0,0,0,0,3.311h30.236a1.655,1.655,0,0,0,0-3.311Zm0,0" transform="translate(-238.075 -272.754)"/><path d="M328.784,379H307.155a1.655,1.655,0,0,0,0,3.311h21.629a1.655,1.655,0,0,0,0-3.311Zm0,0" transform="translate(-238.075 -295.354)"/></svg>