<?xml version="1.0" encoding="utf-8"?>
<!-- Generator: Adobe Illustrator 22.1.0, SVG Export Plug-In . SVG Version: 6.00 Build 0)  -->
<svg version="1.1" id="Layer_1" xmlns="http://www.w3.org/2000/svg" xmlns:xlink="http://www.w3.org/1999/xlink" x="0px" y="0px"
	 viewBox="0 0 32 32" style="enable-background:new 0 0 32 32;" xml:space="preserve">
<style type="text/css">
	.st0{fill:#3E3E3E;}
</style>
<path class="st0" d="M4,10h24c1.1,0,2-0.9,2-2s-0.9-2-2-2H4C2.9,6,2,6.9,2,8S2.9,10,4,10z M25.2,14H6.6C5.7,14,5,14.9,5,16
	s0.7,2,1.6,2h18.6c0.9,0,1.6-0.9,1.6-2S26.1,14,25.2,14z M21.7,22H10c-0.5,0-1,0.9-1,2s0.4,2,1,2h11.6c0.5,0,1-0.9,1-2
	S22.2,22,21.7,22z"/>
</svg>
