<svg xmlns="http://www.w3.org/2000/svg" width="20.823" height="20.823" viewBox="0 0 20.823 20.823"><defs><style>.a{fill:#fff;}</style></defs><path class="a" d="M14.316,0H6.507A6.508,6.508,0,0,0,0,6.507v7.809a6.508,6.508,0,0,0,6.507,6.507h7.809a6.508,6.508,0,0,0,6.507-6.507V6.507A6.508,6.508,0,0,0,14.316,0Zm4.555,14.316a4.56,4.56,0,0,1-4.555,4.555H6.507a4.56,4.56,0,0,1-4.555-4.555V6.507A4.56,4.56,0,0,1,6.507,1.952h7.809a4.56,4.56,0,0,1,4.555,4.555Z"/><g transform="translate(5.206 5.206)"><path class="a" d="M133.206,128a5.206,5.206,0,1,0,5.206,5.206A5.206,5.206,0,0,0,133.206,128Zm0,8.459a3.254,3.254,0,1,1,3.254-3.254A3.258,3.258,0,0,1,133.206,136.459Z" transform="translate(-128 -128)"/></g><g transform="translate(15.314 4.122)"><circle class="a" cx="0.694" cy="0.694" r="0.694"/></g></svg>