<svg xmlns="http://www.w3.org/2000/svg" width="22.226" height="16.669" viewBox="0 0 22.226 16.669"><defs><style>.a{fill:#fff;}</style></defs><g transform="translate(0 -60.651)"><path class="a" d="M22.226,74.542a2.754,2.754,0,0,1-.357,1.336l-7.018-7.852,6.942-6.073a2.758,2.758,0,0,1,.433,1.476V74.542Zm-11.113-5.09L20.772,61a2.744,2.744,0,0,0-1.324-.35H2.778A2.734,2.734,0,0,0,1.455,61Zm2.693-.511L11.57,70.9a.7.7,0,0,1-.914,0L8.42,68.941,1.313,76.893a2.745,2.745,0,0,0,1.465.427H19.448a2.745,2.745,0,0,0,1.465-.427ZM.433,61.953A2.758,2.758,0,0,0,0,63.429V74.542a2.745,2.745,0,0,0,.357,1.336l7.017-7.853Z"/></g></svg>