<svg xmlns="http://www.w3.org/2000/svg" width="22.832" height="18.546" viewBox="0 0 22.832 18.546"><defs><style>.a{fill:#fff;}</style></defs><g transform="translate(-0.001 -57.441)"><g transform="translate(0.001 57.441)"><path class="a" d="M22.833,59.635a9.354,9.354,0,0,1-2.689.738A4.7,4.7,0,0,0,22.2,57.783a9.443,9.443,0,0,1-2.976,1.137,4.687,4.687,0,0,0-7.981,4.27A13.3,13.3,0,0,1,1.592,58.3a4.689,4.689,0,0,0,1.45,6.252A4.684,4.684,0,0,1,.92,63.961v.059a4.688,4.688,0,0,0,3.757,4.593,4.744,4.744,0,0,1-1.234.164,4.5,4.5,0,0,1-.882-.087,4.686,4.686,0,0,0,4.374,3.253,9.4,9.4,0,0,1-5.817,2A9.954,9.954,0,0,1,0,73.88,13.239,13.239,0,0,0,7.18,75.987,13.234,13.234,0,0,0,20.506,62.661l-.016-.606A9.353,9.353,0,0,0,22.833,59.635Z" transform="translate(-0.001 -57.441)"/></g></g></svg>