<svg xmlns="http://www.w3.org/2000/svg" width="21.226" height="21.212" viewBox="0 0 21.226 21.212"><defs><style>.a{fill:#fff;}</style></defs><g transform="translate(0 -0.188)"><g transform="translate(0 0.188)"><path class="a" d="M21.216,16.928a1.026,1.026,0,0,1-.315.9l-2.989,2.966a1.682,1.682,0,0,1-.528.382,2.182,2.182,0,0,1-.64.2q-.022,0-.135.011t-.292.011a10.359,10.359,0,0,1-1.382-.146,10.5,10.5,0,0,1-2.337-.719,19.615,19.615,0,0,1-3.135-1.719,23.371,23.371,0,0,1-3.73-3.146A24.623,24.623,0,0,1,3.127,12.7a21.133,21.133,0,0,1-1.663-2.618,14.1,14.1,0,0,1-.944-2.18A11.564,11.564,0,0,1,.094,6.221,5.566,5.566,0,0,1,0,5.109q.022-.4.022-.449a2.184,2.184,0,0,1,.2-.64A1.684,1.684,0,0,1,.61,3.491L3.6.5A.99.99,0,0,1,4.318.188a.838.838,0,0,1,.517.169,1.562,1.562,0,0,1,.382.416l2.4,4.561a1.094,1.094,0,0,1,.112.786,1.4,1.4,0,0,1-.382.719l-1.1,1.1a.375.375,0,0,0-.079.146.554.554,0,0,0-.034.169,4.057,4.057,0,0,0,.4,1.079,9.9,9.9,0,0,0,.831,1.315,14.6,14.6,0,0,0,1.6,1.786,14.884,14.884,0,0,0,1.8,1.607,10.381,10.381,0,0,0,1.315.843,3.494,3.494,0,0,0,.809.326l.281.056a.536.536,0,0,0,.146-.034.375.375,0,0,0,.146-.079l1.281-1.3a1.377,1.377,0,0,1,.944-.359,1.174,1.174,0,0,1,.607.135h.022l4.337,2.562A1.13,1.13,0,0,1,21.216,16.928Z" transform="translate(0 -0.188)"/></g></g></svg>