<svg xmlns="http://www.w3.org/2000/svg" width="24" height="23.71" viewBox="0 0 24 23.71"><defs><style>.a{fill:#43a047;}</style></defs><g transform="translate(0 -2.95)"><g transform="translate(0 2.95)"><path class="a" d="M.188,9.952.1,3.539A.583.583,0,0,1,.688,2.95L7.1,3.043a.581.581,0,0,1,.4.992L5.719,5.819,8.686,8.786,5.931,11.541,2.964,8.574,1.18,10.359A.583.583,0,0,1,.188,9.952Z" transform="translate(-0.095 -2.95)"/><path class="a" d="M292.022,9.57l1.784,1.784a.581.581,0,0,0,.992-.4l.093-6.413a.583.583,0,0,0-.589-.589l-6.413.093a.581.581,0,0,0-.4.992l1.78,1.776L286.3,9.778l2.755,2.755Z" transform="translate(-270.891 -3.907)"/><path class="a" d="M287.387,290.953a.581.581,0,0,0,.4.992l6.413.093a.583.583,0,0,0,.589-.589l-.093-6.413a.581.581,0,0,0-.992-.4l-1.784,1.784-2.967-2.967-2.755,2.755,2.967,2.967Z" transform="translate(-270.796 -268.328)"/><path class="a" d="M.593,291.038l6.413-.093a.581.581,0,0,0,.4-.992l-1.784-1.78,2.967-2.967-2.755-2.755-2.967,2.967-1.784-1.784a.581.581,0,0,0-.992.4L0,290.449A.589.589,0,0,0,.593,291.038Z" transform="translate(0 -267.37)"/></g></g></svg>