<svg xmlns="http://www.w3.org/2000/svg" width="106.047" height="102.626" viewBox="0 0 106.047 102.626"><defs><style>.a{fill:#e8493f;}.b{fill:#df4034;}.c{fill:#ef5249;}.d{fill:#abbac2;}.e{fill:#f5be9a;}.f{fill:#e8ac84;}.g{fill:#fc8c29;}</style></defs><g transform="translate(-16 -16)"><path class="a" d="M323.421,80h32.5v32.5h-32.5A3.421,3.421,0,0,1,320,109.077V83.421A3.421,3.421,0,0,1,323.421,80Z" transform="translate(-239.004 -50.317)"/><path class="b" d="M320,152h18.815v6.842a3.421,3.421,0,0,1-3.421,3.421H323.421A3.421,3.421,0,0,0,320,165.683Z" transform="translate(-239.004 -106.923)"/><path class="c" d="M294.788,77.077a3.421,3.421,0,0,0-3.421-3.421H264V48h27.367a3.421,3.421,0,0,1,3.421,3.421Z" transform="translate(-194.977 -25.158)"/><path class="d" d="M240,89V27.421a3.421,3.421,0,0,1,6.842,0V89Z" transform="translate(-176.108 -6.29)"/><path class="e" d="M205.683,298.208h6.034a32.4,32.4,0,0,0,14.491-3.421h10.263V274.262h-7.517a5.131,5.131,0,0,1-4.269-2.285l-3.116-4.676a7.416,7.416,0,0,0-12.8.8l-1.372,2.742h-8.552a3.421,3.421,0,1,0,0,6.842h-3.421a3.421,3.421,0,0,0,0,6.842h5.131a3.421,3.421,0,1,0,0,6.842h5.131a3.421,3.421,0,0,0,0,6.842Z" transform="translate(-138.37 -194.976)"/><path class="f" d="M222.788,332.525a6.846,6.846,0,0,0-3.478-5.956,6.845,6.845,0,0,0-6.785-7.727h-6.438l-.426-.851a10.778,10.778,0,0,0-9.693-5.99c-.183,0-.365.008-.547.017a3.421,3.421,0,0,0,3.42,3.4h-3.421a3.421,3.421,0,0,0,0,6.842h5.131a3.421,3.421,0,1,0,0,6.842h5.131a3.421,3.421,0,0,0,0,6.842h6.034a32.4,32.4,0,0,0,10.891-1.887A6.83,6.83,0,0,0,222.788,332.525Z" transform="translate(-138.37 -232.714)"/><path class="g" d="M384,296h23.946v27.367H384Z" transform="translate(-289.32 -220.135)"/><path class="e" d="M146.209,358.787a3.421,3.421,0,0,0-3.421-3.421h5.131a3.421,3.421,0,1,0,0-6.842h5.131a3.421,3.421,0,0,0,0-6.842H149.63a3.421,3.421,0,1,0,0-6.842h-8.552l-1.371-2.742a7.416,7.416,0,0,0-12.8-.8l-3.117,4.675a5.131,5.131,0,0,1-4.269,2.285H112v20.525h10.263a32.4,32.4,0,0,0,14.491,3.421h6.034A3.421,3.421,0,0,0,146.209,358.787Z" transform="translate(-75.475 -245.293)"/><path class="g" d="M16,360H39.946v27.367H16Z" transform="translate(0 -270.451)"/><path d="M88,448h3.421v3.421H88Z" transform="translate(-56.606 -339.637)"/><path d="M78.923,333.867a5.128,5.128,0,0,0-4.768-7.023h-7.5l-.9-1.8a9.126,9.126,0,0,0-15.756-.981l-3.117,4.675a3.414,3.414,0,0,1-2.847,1.522H41.657v-1.71a1.71,1.71,0,0,0-1.71-1.71H16v3.421H38.236v23.946H16v3.421H39.946a1.71,1.71,0,0,0,1.71-1.71v-1.71H46.39a34.3,34.3,0,0,0,14.889,3.421h6.034a5.13,5.13,0,0,0,4.837-6.842h.294a5.13,5.13,0,0,0,4.837-6.842h.294a5.131,5.131,0,0,0,1.347-10.082Zm-1.347,6.661H65.6v3.421h6.842a1.71,1.71,0,1,1,0,3.421H63.892v3.421h3.421a1.71,1.71,0,1,1,0,3.421H61.279a30.852,30.852,0,0,1-13.726-3.24,1.709,1.709,0,0,0-.765-.181H41.657v-17.1h2.385a6.828,6.828,0,0,0,5.693-3.047l3.117-4.675a5.706,5.706,0,0,1,9.851.613l.133.267H58.761v3.421H74.155a1.71,1.71,0,1,1,0,3.421H67.313v3.421H77.576a1.71,1.71,0,0,1,0,3.421Z" transform="translate(0 -239.007)"/><path d="M266.707,74.155H239.34a1.71,1.71,0,0,0-1.71,1.71v1.71h-2.385a3.414,3.414,0,0,1-2.846-1.523l-3.117-4.675A9.137,9.137,0,0,0,217.1,68.542V50.209h6.842v8.552a5.137,5.137,0,0,0,5.131,5.131h32.5a1.71,1.71,0,0,0,1.71-1.71v-32.5a1.71,1.71,0,0,0-1.71-1.71H246.182v-1.71a5.137,5.137,0,0,0-5.131-5.131H217.1a5.131,5.131,0,0,0-10.263,0V74.155h-1.71A5.137,5.137,0,0,0,200,79.286h3.421a1.712,1.712,0,0,1,1.71-1.71h15.394V74.155H217.1V73.043a5.7,5.7,0,0,1,9.331.231l3.117,4.675A6.828,6.828,0,0,0,235.244,81h2.385V98.1H232.5a1.709,1.709,0,0,0-.765.181,30.808,30.808,0,0,1-3.24,1.393l1.169,3.215a34.222,34.222,0,0,0,3.235-1.368h4.733v1.71a1.71,1.71,0,0,0,1.71,1.71h27.367v-3.421H241.05V77.576h25.656ZM241.05,50.209a1.71,1.71,0,1,1,0,3.421H229.077a5.107,5.107,0,0,0-1.71.294V50.209Zm18.815-18.815V60.471H229.077a1.71,1.71,0,1,1,0-3.421H241.05a5.137,5.137,0,0,0,5.131-5.131V31.394ZM241.05,24.552a1.712,1.712,0,0,1,1.71,1.71V47.082a5.107,5.107,0,0,0-1.71-.294H217.1V24.552Zm-30.788,49.6V21.131a1.71,1.71,0,1,1,3.421,0V74.155Z" transform="translate(-144.66)"/><path d="M408,384h3.421v3.421H408Z" transform="translate(-308.189 -289.32)"/><path d="M200,56h3.421V90.209H200Z" transform="translate(-144.66 -31.448)"/><path d="M200,232h3.421v3.421H200Z" transform="translate(-144.66 -169.818)"/></g></svg>