<svg xmlns="http://www.w3.org/2000/svg" width="14" height="14" viewBox="0 0 14 14"><defs><style>.a{fill:#fff;}</style></defs><path class="a" d="M3.1,142.948l-.487,1.819L.834,144.8a7.012,7.012,0,0,1-.052-6.537h0l1.586.291.695,1.576a4.178,4.178,0,0,0,.039,2.813Z" transform="translate(0 -134.487)"/><path class="a" d="M268.352,208.176a7,7,0,0,1-2.5,6.767h0l-2-.1-.283-1.765a4.172,4.172,0,0,0,1.795-2.13h-3.743v-2.769h6.724Z" transform="translate(-254.474 -202.484)"/><path class="a" d="M41.057,313.407h0a7,7,0,0,1-10.548-2.142l2.268-1.857a4.163,4.163,0,0,0,6,2.132Z" transform="translate(-29.675 -300.949)"/><path class="a" d="M39.309,1.612,37.042,3.468A4.163,4.163,0,0,0,30.9,5.648l-2.28-1.867h0A7,7,0,0,1,39.309,1.612Z" transform="translate(-27.841)"/></svg>