<svg xmlns="http://www.w3.org/2000/svg" xmlns:xlink="http://www.w3.org/1999/xlink" width="166.449" height="54.447" viewBox="0 0 166.449 54.447"><defs><style>.a{fill:none;}.b{fill:#231f20;}.c{clip-path:url(#a);}.d{fill:url(#b);}.e{fill:url(#c);}.f{fill:url(#d);}.g{fill:url(#e);}.h{fill:#f9f9f9;}.i{fill:#f9f9fa;}</style><clipPath id="a"><path class="a" d="M61.947,46.884l-7.5-4.335-14.475-8.36c-.8-.462-1.608-.182-1.608.788V69.033c0,.729.573,1.041,1.272.651l14.81-8.552,7.5-4.331,7.211-4.178c.846-.488.765-1.159.052-1.543S61.947,46.884,61.947,46.884Z" transform="translate(-38.36 -33.972)"/></clipPath><linearGradient id="b" x1="0.5" x2="0.5" y2="1" gradientUnits="objectBoundingBox"><stop offset="0" stop-color="#257cb0"/><stop offset="0.21" stop-color="#3c8fb3"/><stop offset="0.74" stop-color="#73bdba"/><stop offset="1" stop-color="#89cfbd"/></linearGradient><linearGradient id="c" y1="0.5" x2="1" y2="0.5" gradientUnits="objectBoundingBox"><stop offset="0" stop-color="#52c1ad"/><stop offset="1" stop-color="#dee89a"/></linearGradient><linearGradient id="d" x1="0.5" x2="0.5" y2="1" gradientUnits="objectBoundingBox"><stop offset="0" stop-color="#ec413d"/><stop offset="0.19" stop-color="#d74352"/><stop offset="0.74" stop-color="#a04888"/><stop offset="1" stop-color="#8a4a9d"/></linearGradient><linearGradient id="e" x1="0.5" x2="0.5" y2="1" gradientUnits="objectBoundingBox"><stop offset="0" stop-color="#f58879"/><stop offset="0.62" stop-color="#fbb276"/><stop offset="1" stop-color="#fec874"/></linearGradient></defs><path class="b" d="M166.449,47.089a7.358,7.358,0,0,1-7.358,7.358H7.358A7.358,7.358,0,0,1,0,47.089V7.358A7.358,7.358,0,0,1,7.358,0H159.091a7.358,7.358,0,0,1,7.358,7.358Z"/><g transform="translate(12.483 11.055)"><g class="c"><path class="d" d="M38.37,32.21V69.081L56.962,50.645Z" transform="translate(-38.367 -32.783)"/><path class="e" d="M61.954,45.419l-7.5-4.335L38.37,31.8v.133L56.962,50.369Z" transform="translate(-38.367 -32.507)"/><path class="f" d="M38.37,107.3v.137l16.079-9.288,7.5-4.331L56.962,88.86Z" transform="translate(-38.367 -70.998)"/><path class="g" d="M100.492,73.65,95.5,78.6l4.992,4.953L109.07,78.6Z" transform="translate(-76.905 -60.738)"/></g></g><path class="h" d="M387.712,87.968a4.592,4.592,0,0,1-1.914-.387,3.6,3.6,0,0,1-1.451-1.188h-.12a13.863,13.863,0,0,1,.12,1.78v4.416H382.72V77.053h1.3l.228,1.468h.078a3.732,3.732,0,0,1,1.458-1.272,4.426,4.426,0,0,1,1.907-.391,3.963,3.963,0,0,1,3.293,1.458,7.769,7.769,0,0,1-.02,8.194A3.98,3.98,0,0,1,387.712,87.968Zm-.234-9.734a2.886,2.886,0,0,0-2.379.908,4.694,4.694,0,0,0-.752,2.9V82.4a5.332,5.332,0,0,0,.752,3.235,2.857,2.857,0,0,0,2.418.976,2.519,2.519,0,0,0,2.177-1.123,5.354,5.354,0,0,0,.788-3.1,5.14,5.14,0,0,0-.788-3.075,2.6,2.6,0,0,0-2.216-1.074Z" transform="translate(-258.173 -51.846)"/><path class="h" d="M419.917,78.853H418.29V63.63h1.627Z" transform="translate(-282.167 -42.923)"/><path class="h" d="M436.667,87.819l-.325-1.526h-.078a4.478,4.478,0,0,1-1.6,1.364,4.845,4.845,0,0,1-1.992.358,3.578,3.578,0,0,1-2.5-.82,3,3,0,0,1-.9-2.34q0-3.254,5.207-3.4l1.819-.059v-.651a2.7,2.7,0,0,0-.543-1.861A2.285,2.285,0,0,0,434,78.248a7.075,7.075,0,0,0-3.033.82l-.485-1.23a7.715,7.715,0,0,1,1.738-.674,7.544,7.544,0,0,1,1.894-.244,4.088,4.088,0,0,1,2.841.849,3.549,3.549,0,0,1,.924,2.73v7.319ZM433,86.673a3.3,3.3,0,0,0,2.382-.83,3.075,3.075,0,0,0,.866-2.33v-.976l-1.627.065a5.868,5.868,0,0,0-2.792.605,1.809,1.809,0,0,0-.856,1.656A1.666,1.666,0,0,0,431.5,86.2a2.213,2.213,0,0,0,1.49.469Z" transform="translate(-289.574 -51.888)"/><path class="h" d="M458.58,77.46h1.741l2.35,6.115a23.363,23.363,0,0,1,.957,3.023h.078c.088-.325.264-.9.534-1.708s1.159-3.28,2.655-7.429h1.744l-4.608,12.217a6.106,6.106,0,0,1-1.6,2.568,3.391,3.391,0,0,1-2.245.758,6.547,6.547,0,0,1-1.468-.166v-1.3a5.681,5.681,0,0,0,1.2.117,2.474,2.474,0,0,0,2.385-1.878l.6-1.526Z" transform="translate(-309.346 -52.252)"/><path class="h" d="M288.267,78.854a3.653,3.653,0,0,1-.293,6.212,1.575,1.575,0,0,0-.628,1.1,1.23,1.23,0,0,0,.583.976l.81.628c.976.83,1.881,1.595,1.881,3.14,0,2.109-2.04,4.231-5.9,4.231-3.254,0-4.823-1.549-4.823-3.209a3.229,3.229,0,0,1,1.728-2.737,9.476,9.476,0,0,1,4.283-1.032,2.3,2.3,0,0,1-.674-1.523,2.037,2.037,0,0,1,.225-.875c-.247.023-.491.042-.719.042a3.542,3.542,0,0,1-3.72-3.518,4.039,4.039,0,0,1,1.435-3.007,6.11,6.11,0,0,1,4.016-1.233h4.618l-1.435.807Zm-1.595,9.958a3.554,3.554,0,0,0-.514-.023,8.94,8.94,0,0,0-2.356.361,2.52,2.52,0,0,0-1.926,2.311c0,1.595,1.546,2.737,3.947,2.737,2.151,0,3.3-1.035,3.3-2.424,0-1.146-.726-1.748-2.447-2.961Zm.651-4.26a2.278,2.278,0,0,0,.56-1.627c0-1.627-.976-4.126-2.825-4.126a2.093,2.093,0,0,0-1.569.742,2.6,2.6,0,0,0-.495,1.66c0,1.5.875,3.993,2.805,3.993a2.278,2.278,0,0,0,1.523-.651Z" transform="translate(-188.813 -52.65)"/><path class="h" d="M250.894,87.763a5.285,5.285,0,0,1-5.464-5.285,5.552,5.552,0,0,1,5.8-5.441,5.236,5.236,0,0,1,5.35,5.291A5.466,5.466,0,0,1,250.894,87.763Zm2.8-1.813a4.068,4.068,0,0,0,.674-2.486c0-1.972-.94-5.734-3.72-5.734a3.114,3.114,0,0,0-2.014.765,3.387,3.387,0,0,0-1.032,2.73c0,2.216,1.1,5.858,3.811,5.858a2.857,2.857,0,0,0,2.281-1.126Z" transform="translate(-165.561 -51.967)"/><path class="h" d="M213.6,87.763a5.274,5.274,0,0,1-5.467-5.285,5.554,5.554,0,0,1,5.8-5.441,5.236,5.236,0,0,1,5.35,5.291A5.465,5.465,0,0,1,213.6,87.763Zm2.8-1.813a4.065,4.065,0,0,0,.67-2.486c0-1.972-.94-5.734-3.716-5.734a3.114,3.114,0,0,0-2.008.771,3.377,3.377,0,0,0-1.032,2.73c0,2.216,1.1,5.858,3.808,5.858a2.867,2.867,0,0,0,2.278-1.132Z" transform="translate(-140.399 -51.967)"/><path class="h" d="M170.723,76.931l-3.222.742a23.62,23.62,0,0,1-3.713.384c-6.212,0-8.578-4.572-8.578-8.152,0-4.367,3.355-8.416,9.1-8.416a12.985,12.985,0,0,1,3.446.472,8.787,8.787,0,0,1,2.971,1.4l-1.871,1.777-.788.179.563-.9a6.432,6.432,0,0,0-4.816-2.115c-3.557,0-6.235,2.7-6.235,6.642a7.962,7.962,0,0,0,7.966,8.217,6.714,6.714,0,0,0,2.861-.563V72.971l-3.4.179,1.8-.976h4.774l-.586.563a.517.517,0,0,0-.225.358c-.026.205-.046.859-.046,1.084Z" transform="translate(-104.701 -41.48)"/><path class="h" d="M317.581,75.255c-.742-.068-.9-.2-.9-1.08v-12.9c.091-.788.325-.924,1.015-1.331h-3.2l-1.689.814h1.721v13.9c0,.449-.088.517-.605,1.191h3.983l.82-.491C318.349,75.3,317.965,75.284,317.581,75.255Z" transform="translate(-211.013 -40.434)"/><path class="h" d="M338.708,87.008c-.244.133-.491.29-.735.4a5.207,5.207,0,0,1-2.171.426,4.781,4.781,0,0,1-2.974-.872,5.792,5.792,0,0,1-2.278-4.719,5.067,5.067,0,0,1,5.119-5.165,4.334,4.334,0,0,1,2.3.625,3.684,3.684,0,0,1,1.562,2.21l-5.259,2.128-1.722.137c.56,2.838,2.483,4.491,4.608,4.491a5.77,5.77,0,0,0,2.727-.781Zm-2.1-6.665c.423-.156.651-.29.651-.6a2.218,2.218,0,0,0-2.213-1.923c-.9,0-2.571.693-2.571,3.108,0,.377.042.781.065,1.185Z" transform="translate(-222.98 -51.995)"/><path class="h" d="M360.87,77.233V78.71h-.182V77.233H360.2V77.08h1.155v.153Z" transform="translate(-242.981 -51.996)"/><path class="h" d="M365.89,78.717v-1.49h0l-.469,1.49h-.14l-.459-1.49h0v1.49h-.163V77.09h.277l.417,1.3h0l.407-1.3h.283v1.627Z" transform="translate(-245.99 -52.003)"/><path class="i" d="M159.779,38.556h-1.116a7.46,7.46,0,0,0-.325-1.3H156.71a6.618,6.618,0,0,0-.325,1.3H155.33c0-.088.273-.836.817-2.236a17.785,17.785,0,0,0,.817-2.32h1.321a19.612,19.612,0,0,0,.739,2.278,19.6,19.6,0,0,1,.755,2.278ZM158.151,36.6c-.4-1.2-.6-1.855-.6-1.953H157.5a20.217,20.217,0,0,1-.618,1.953Z" transform="translate(-104.781 -22.935)"/><path class="i" d="M175,38.549h-.866a8.694,8.694,0,0,0-.976-1.513,8.88,8.88,0,0,1-1.149-1.975h-.055a12.275,12.275,0,0,1,.088,1.386q0,.866.049,2.1h-.859c.036-.722.052-1.513.052-2.379S171.266,34.6,171.23,34h1.038a6.564,6.564,0,0,0,.862,1.477,8.637,8.637,0,0,1,1.058,1.865h.052a13.41,13.41,0,0,1-.085-1.4q0-.947-.049-1.953h.875c-.033.576-.049,1.3-.049,2.171S174.966,37.843,175,38.549Z" transform="translate(-115.507 -22.929)"/><path class="i" d="M190.38,36.149a2.6,2.6,0,0,1-.651,1.735,2.229,2.229,0,0,1-1.783.739c-.345,0-.82,0-1.425-.042q.042-1.054.046-2.379,0-1.272-.046-2.171h1.448a2.353,2.353,0,0,1,1.829.631A2.18,2.18,0,0,1,190.38,36.149Zm-.957.15a1.692,1.692,0,0,0-.391-1.132,1.484,1.484,0,0,0-1.194-.459,3.343,3.343,0,0,0-.413.033c.023.465.036.953.036,1.461s0,1.11.033,1.656a2.4,2.4,0,0,0,.456.046,1.325,1.325,0,0,0,1.113-.465A1.806,1.806,0,0,0,189.423,36.3Z" transform="translate(-125.821 -22.956)"/><path class="i" d="M205.087,38.563h-1.035a6.99,6.99,0,0,0-.622-1.526.817.817,0,0,0-.7-.29h-.387c0,.6,0,1.2.033,1.813H201.4q.046-1.054.046-2.379,0-1.272-.046-2.171h1.66q1.608,0,1.6,1.1a1.23,1.23,0,0,1-.914,1.211v.055a1.084,1.084,0,0,1,.618.55,11.981,11.981,0,0,1,.719,1.637Zm-1.3-3.215c0-.462-.3-.7-.895-.7a3.078,3.078,0,0,0-.579.049c.026.361.039.833.039,1.412h.325c.729.013,1.1-.247,1.1-.762Z" transform="translate(-135.859 -22.942)"/><path class="i" d="M218.912,36a2.5,2.5,0,0,1-.651,1.78,2.128,2.128,0,0,1-1.627.706,2.05,2.05,0,0,1-1.546-.651,2.278,2.278,0,0,1-.622-1.65,2.5,2.5,0,0,1,.651-1.777,2.122,2.122,0,0,1,1.627-.706,2.066,2.066,0,0,1,1.546.651A2.278,2.278,0,0,1,218.912,36Zm-.976.1a1.822,1.822,0,0,0-.368-1.188,1.155,1.155,0,0,0-.918-.465,1.067,1.067,0,0,0-.866.456,1.835,1.835,0,0,0-.358,1.159,1.806,1.806,0,0,0,.377,1.185,1.149,1.149,0,0,0,.921.456,1.061,1.061,0,0,0,.866-.462,1.823,1.823,0,0,0,.358-1.139Z" transform="translate(-144.672 -22.732)"/><path class="i" d="M232.176,38.569H231.2c.033-.722.046-1.513.046-2.379s0-1.575-.046-2.171h.976c-.029.586-.046,1.3-.046,2.171S232.147,37.867,232.176,38.569Z" transform="translate(-155.961 -22.949)"/><path class="i" d="M241.77,36.149a2.6,2.6,0,0,1-.651,1.735,2.229,2.229,0,0,1-1.783.739c-.345,0-.82,0-1.425-.042q.046-1.054.046-2.379,0-1.272-.046-2.171h1.448a2.353,2.353,0,0,1,1.829.631A2.177,2.177,0,0,1,241.77,36.149Zm-.954.15a1.692,1.692,0,0,0-.391-1.132,1.487,1.487,0,0,0-1.185-.459,3.3,3.3,0,0,0-.41.033c.023.465.033.953.033,1.461s0,1.11.036,1.656a2.4,2.4,0,0,0,.456.046,1.325,1.325,0,0,0,1.113-.465A1.806,1.806,0,0,0,240.816,36.3Z" transform="translate(-160.488 -22.956)"/><path class="i" d="M261.215,38.569H260.1a7.158,7.158,0,0,0-.325-1.3h-1.627a6.888,6.888,0,0,0-.325,1.3H256.77c0-.088.27-.836.817-2.236a17.448,17.448,0,0,0,.814-2.314h1.324a18.881,18.881,0,0,0,.739,2.278A20.4,20.4,0,0,1,261.215,38.569ZM259.588,36.6a19.433,19.433,0,0,1-.6-1.953h-.055c0,.091-.208.742-.618,1.953Z" transform="translate(-173.21 -22.949)"/><path class="i" d="M276.126,35.232a1.36,1.36,0,0,1-.622,1.233,2.747,2.747,0,0,1-1.52.4h-.234c0,.436,0,1.015.036,1.731h-.976q.046-1.006.042-2.379,0-1.259-.042-2.171h1.754a1.988,1.988,0,0,1,1.123.3A1.012,1.012,0,0,1,276.126,35.232Zm-.9.192c0-.5-.325-.748-.993-.748a3.008,3.008,0,0,0-.524.052c.026.443.036.94.036,1.5a1.953,1.953,0,0,0,.205,0c.836.007,1.263-.26,1.263-.8Z" transform="translate(-184.03 -22.967)"/><path class="i" d="M288.973,35.2a1.36,1.36,0,0,1-.618,1.233,2.75,2.75,0,0,1-1.523.4H286.6c0,.436,0,1.015.039,1.731h-.976q.046-1.006.046-2.379,0-1.259-.046-2.171h.609l.478-.016h.651a2,2,0,0,1,1.123.3A1.012,1.012,0,0,1,288.973,35.2Zm-.9.192c0-.5-.325-.748-.993-.748a3.036,3.036,0,0,0-.524.052c.026.443.039.94.039,1.5a1.927,1.927,0,0,0,.2,0C287.648,36.2,288.071,35.931,288.071,35.391Z" transform="translate(-192.699 -22.933)"/><path class="i" d="M307.692,36a2.5,2.5,0,0,1-.651,1.78,2.132,2.132,0,0,1-1.627.706,2.044,2.044,0,0,1-1.542-.651,2.278,2.278,0,0,1-.625-1.65,2.516,2.516,0,0,1,.651-1.777,2.135,2.135,0,0,1,1.627-.706,2.066,2.066,0,0,1,1.546.651A2.278,2.278,0,0,1,307.692,36Zm-.976.1a1.8,1.8,0,0,0-.374-1.188,1.145,1.145,0,0,0-.9-.465,1.071,1.071,0,0,0-.869.456,1.835,1.835,0,0,0-.368,1.172,1.806,1.806,0,0,0,.374,1.185,1.158,1.158,0,0,0,.921.456,1.061,1.061,0,0,0,.869-.462,1.823,1.823,0,0,0,.355-1.152Z" transform="translate(-204.561 -22.732)"/><path class="i" d="M323.665,38.556H322.8a8.7,8.7,0,0,0-.976-1.513,8.683,8.683,0,0,1-1.146-1.975h-.055a12.268,12.268,0,0,1,.088,1.386c0,.576,0,1.276.049,2.1H319.9c.036-.722.052-1.513.052-2.379s-.016-1.575-.052-2.171h1.038a6.559,6.559,0,0,0,.866,1.477,8.722,8.722,0,0,1,1.058,1.868h.052a13.41,13.41,0,0,1-.085-1.4q0-.947-.049-1.953h.875c-.033.576-.049,1.3-.049,2.171S323.633,37.85,323.665,38.556Z" transform="translate(-215.796 -22.935)"/></svg>