<?xml version="1.0" encoding="utf-8"?>
<!-- Generator: Adobe Illustrator 22.1.0, SVG Export Plug-In . SVG Version: 6.00 Build 0)  -->
<svg version="1.1" id="Capa_1" xmlns="http://www.w3.org/2000/svg" xmlns:xlink="http://www.w3.org/1999/xlink" x="0px" y="0px"
	 viewBox="0 0 16.3 15.4" style="enable-background:new 0 0 16.3 15.4;" xml:space="preserve">
<style type="text/css">
	.st0{fill:#3E3E3E;}
</style>
<g>
	<path class="st0" d="M8.1,3.1C5,3.1,2.3,4.7,0.2,7.5C0,7.7,0,8,0.2,8.2c2.1,2.7,4.8,4.4,7.9,4.4s5.8-1.7,7.9-4.4
		c0.2-0.2,0.2-0.5,0-0.8C13.9,4.7,11.2,3.1,8.1,3.1z M8.3,11.2c-2,0.1-3.7-1.5-3.6-3.6c0.1-1.7,1.5-3,3.1-3.1c2-0.1,3.7,1.5,3.6,3.6
		C11.4,9.7,10,11.1,8.3,11.2z M8.2,9.7c-1.1,0.1-2-0.8-1.9-1.9c0-1,0.8-1.7,1.7-1.8c1.1,0,2,0.9,1.9,2C9.9,8.9,9.1,9.6,8.2,9.7z"/>
</g>
<path class="st0" d="M14.1,1.1l-4,4c0.1,0.1,0.3,0.2,0.4,0.2l3.9-3.9c0.1-0.1,0.1-0.2,0-0.3C14.4,1,14.2,1,14.1,1.1z"/>
<path class="st0" d="M1,14c-0.1,0.1-0.1,0.3,0,0.4c0.1,0.1,0.3,0.1,0.4,0c0,0,0,0,0,0l4.2-4.2c-0.2-0.1-0.3-0.2-0.5-0.2L1,14z"/>
</svg>
