<svg xmlns="http://www.w3.org/2000/svg" width="24" height="24" viewBox="0 0 24 24"><defs><style>.a{fill:#43a047;}</style></defs><path class="a" d="M23.561,6.591,17.411.439A1.5,1.5,0,0,0,16.347,0h-8.7a1.5,1.5,0,0,0-1.06.439L.441,6.591A1.489,1.489,0,0,0,0,7.651v8.7a1.5,1.5,0,0,0,.439,1.06l6.15,6.152A1.5,1.5,0,0,0,7.651,24h8.7a1.5,1.5,0,0,0,1.06-.439l6.15-6.153A1.491,1.491,0,0,0,24,16.347v-8.7A1.5,1.5,0,0,0,23.561,6.591ZM12,21a1.5,1.5,0,1,1,1.5-1.5A1.5,1.5,0,0,1,12,21Zm1.5-7.5a1.5,1.5,0,1,1-3,0v-9a1.5,1.5,0,1,1,3,0Z"/></svg>