<svg xmlns="http://www.w3.org/2000/svg" xmlns:xlink="http://www.w3.org/1999/xlink" width="551" height="472.961" viewBox="0 0 551 472.961"><defs><style>.a{fill:#ff6584;}.b{fill:#3f3d56;}.c{fill:#f2f2f2;}.d{opacity:0.1;}.e{fill:#e6e6e6;}.f{fill:#fff;}.g{fill:#43a047;}.h{filter:url(#c);}.i{filter:url(#a);}</style><filter id="a" x="78.338" y="0" width="177.253" height="426.69" filterUnits="userSpaceOnUse"><feOffset dy="43" input="SourceAlpha"/><feGaussianBlur stdDeviation="14" result="b"/><feFlood flood-opacity="0.161"/><feComposite operator="in" in2="b"/><feComposite in="SourceGraphic"/></filter><filter id="c" x="66.418" y="307.521" width="200.383" height="165.44" filterUnits="userSpaceOnUse"><feOffset dy="43" input="SourceAlpha"/><feGaussianBlur stdDeviation="14" result="d"/><feFlood flood-opacity="0.161"/><feComposite operator="in" in2="d"/><feComposite in="SourceGraphic"/></filter></defs><circle class="a" cx="49.97" cy="49.97" r="49.97" transform="translate(91.591 85.064)"/><path class="b" d="M688,276.46V407.891c0,107.139-86.852,193.986-193.986,193.981H137V470.441A194.159,194.159,0,0,1,260.5,289.664a190.452,190.452,0,0,1,18.9-6.266c.125-.042.256-.077.381-.107q2.838-.777,5.712-1.464c.107-.03.208-.054.315-.077a194.049,194.049,0,0,1,35.982-5.076c1.434-.065,2.868-.119,4.314-.149.518-.018,1.041-.03,1.571-.03q1.642-.036,3.3-.036Z" transform="translate(-137 -156.882)"/><path class="c" d="M394.058,681c-141.669,0-256.567,38.2-257.048,85.387h514.1C650.624,719.2,535.727,681,394.058,681Z" transform="translate(-137.004 -320.708)"/><g class="d" transform="translate(161.849 398.539)"><ellipse cx="47.603" cy="13.223" rx="47.603" ry="13.223"/></g><g class="d" transform="translate(264.789 374.738)"><ellipse cx="47.603" cy="13.223" rx="47.603" ry="13.223"/></g><g class="d" transform="translate(166.609 399.862)"><ellipse cx="42.5" cy="12" rx="42.5" ry="12" transform="translate(0.391 -0.183)"/></g><g class="d" transform="translate(269.55 376.06)"><ellipse cx="42.5" cy="12" rx="42.5" ry="12" transform="translate(0.45 -0.381)"/></g><circle class="c" cx="4" cy="4" r="4" transform="translate(78 168.679)"/><circle class="c" cx="4" cy="4" r="4" transform="translate(436 331.679)"/><circle class="c" cx="4" cy="4" r="4" transform="translate(240 197.679)"/><ellipse class="a" cx="2.5" cy="2" rx="2.5" ry="2" transform="translate(448 174.679)"/><ellipse class="a" cx="2.5" cy="2" rx="2.5" ry="2" transform="translate(89 293.679)"/><path class="c" d="M92.38,580.584H91.3V579.5h-.212v1.084H90v.212h1.084v1.084H91.3V580.8H92.38Z" transform="translate(-36.447 -234.679)"/><path class="c" d="M677.38,432.584H676.3V431.5h-.212v1.084H675v.212h1.084v1.084h.212V432.8h1.084Z" transform="translate(-273.353 -174.744)"/><path class="c" d="M828.38,402.584H827.3V401.5h-.212v1.084H826v.212h1.084v1.084h.212V402.8h1.084Z" transform="translate(-334.503 -162.594)"/><path class="c" d="M503.38,482.584H502.3V481.5h-.212v1.084H501v.212h1.084v1.084h.212V482.8h1.084Z" transform="translate(-202.889 -194.992)"/><path class="c" d="M784.38,492.584H783.3V491.5h-.212v1.084H782v.212h1.084v1.084h.212V492.8h1.084Z" transform="translate(-316.685 -199.042)"/><path class="c" d="M445.38,535.584H444.3V534.5h-.212v1.084H443v.212h1.084v1.084h.212V535.8h1.084Z" transform="translate(-179.401 -216.455)"/><path class="c" d="M573.38,537.584H572.3V536.5h-.212v1.084H571v.212h1.084v1.084h.212V537.8h1.084Z" transform="translate(-231.236 -217.265)"/><path class="c" d="M94.38,367.584H93.3V366.5h-.212v1.084H92v.212h1.084v1.084H93.3V367.8H94.38Z" transform="translate(-37.257 -148.421)"/><rect class="e" width="1.71" height="34.55" transform="translate(402.835 137.268)"/><path class="e" d="M601.039,385.046,585.3,421.306l3.079,5.131-1.026,1.71,7.184,3.763v-2.052l2.737-.684,11.63-21.209Z" transform="translate(-237.029 -155.931)"/><path class="e" d="M724.794,532.407s-11.631,18.13,1.368,20.867,2.395-19.156,2.395-19.156Z" transform="translate(-373.099 -260.532)"/><path class="f" d="M750.168,515.449l-4.1,13.341-1.71,17.1-3.079,6.157,3.421,27.708,5.473,5.473,2.394,27.366v12.315l6.5,11.288-8.37,11.879a3.785,3.785,0,0,0,2.969,5.969,15.638,15.638,0,0,0,7.453-2.113c9.92-5.131,9.578-9.92,9.578-9.92s6.157,0,6.5-4.789-3.763-39-3.763-39l-3.763-14.709V543.5h1.368l.684,34.208,3.079,12.657.342,5.473,4.447,54.732s19.84,5.473,20.867,1.026-7.526-7.184-7.526-7.184l5.131-9.92V615.335l-1.71-4.1-3.079-27.708,5.131-5.473,2.737-3.421V547.262l-3.421-10.6-1.026-8.894-5.473-13.683S766.246,505.871,750.168,515.449Z" transform="translate(-381.711 -251.785)"/><path class="g" d="M795.569,370.989A26,26,0,1,1,748.7,355.483l.007-.007a26,26,0,0,1,46.857,15.513Z" transform="translate(-382.643 -184.634)"/><g class="d" transform="translate(365.385 161.726)"><path d="M794.906,361.144l-2.121,12.147c-15.937-41.371-41.288-15.958-41.726-15.513a26,26,0,0,1,43.847,3.366Z" transform="translate(-751.059 -347.293)"/></g><path class="f" d="M796.056,358.844l-2.121,12.147c-15.937-41.371-41.288-15.958-41.726-15.513a26,26,0,0,1,43.847,3.366Z" transform="translate(-386.139 -184.636)"/><path class="f" d="M789.461,359.564l3.564,12.371s-7.4,22.173-41.7,22.946l-1.124,3.167-3.763,1.026-1.71,7.184,4.789,45.5s-2.052,4.447,1.368,4.1c0,0,22.577-7.526,42.075-.684,0,0,4.1,1.71,3.079-2.052,0,0,13.683-8.552,12.657-17.446s1.026-50.285,1.026-50.285,2.052-11.973-4.1-14.709C805.613,370.682,796.57,358.024,789.461,359.564Z" transform="translate(-383.108 -190.484)"/><path class="e" d="M796.049,504.917s-21.432,2.152-15.5,14.038,16.5-10.027,16.5-10.027Z" transform="translate(-397.197 -249.4)"/><path class="e" d="M816.237,415.185a14.527,14.527,0,0,0-2.395,11.631c1.368,7.184,6.5,23.261,6.5,23.261l-18.13,16.762,5.473,7.526,24.629-12.657,5.473-3.421h0a141.917,141.917,0,0,0-10.051-40.248l-.9-2.169S820.342,413.133,816.237,415.185Z" transform="translate(-406.389 -212.752)"/><circle class="e" cx="6.328" cy="6.328" r="6.328" transform="translate(401.809 177.632)"/><circle class="e" cx="4.618" cy="4.618" r="4.618" transform="translate(399.072 132.478)"/><path class="c" d="M479.38,351.584H478.3V350.5h-.212v1.084H477v.212h1.084v1.084h.212V351.8h1.084Z" transform="translate(-193.17 -141.941)"/><path class="c" d="M643.38,295.584H642.3V294.5h-.212v1.084H641v.212h1.084v1.084h.212V295.8h1.084Z" transform="translate(-259.584 -119.263)"/><path class="c" d="M625.38,312.584H624.3V311.5h-.212v1.084H623v.212h1.084v1.084h.212V312.8h1.084Z" transform="translate(-252.295 -126.147)"/><circle class="c" cx="2.5" cy="2.5" r="2.5" transform="translate(328 156.679)"/><g class="i" transform="matrix(1, 0, 0, 1, 0, 0)"><path class="f" d="M432.492,251.15c0,166.04-20.879,166.04-46.627,166.04-13.312,0-25.321,0-33.813-22.936a143.24,143.24,0,0,1-6.407-26.033c-4.072-24.595-6.407-61.554-6.407-117.072a319.065,319.065,0,0,1,6.407-61.825c1.865-9.411,4.043-18.494,6.407-27.157,2.89-10.607,6.058-20.58,9.254-29.706,2.143-6.136,4.307-11.9,6.407-17.213A369.932,369.932,0,0,1,385.865,75.5S432.492,159.449,432.492,251.15Z" transform="translate(-218.9 -75.5)"/></g><g class="d" transform="translate(142.406 39.75)"><path d="M382.731,142.3V431.786h-6.407V159.516C378.467,153.379,380.632,147.621,382.731,142.3Z" transform="translate(-376.325 -142.303)"/></g><circle class="b" cx="25.627" cy="25.627" r="25.627" transform="translate(139.914 88.982)"/><g class="h" transform="matrix(1, 0, 0, 1, 0, 0)"><path class="g" d="M432.565,610.823c-5.7-14.026-13.014-16.446-17.8-16.235v-2.273H340.024v2.273c-4.782-.21-12.1,2.209-17.8,16.235-9.254,22.779,5.695,61.931,5.695,61.931s-7.989-54.6,18.54-54.964a31.4,31.4,0,0,0,8.323,7.551v14.686h42.842V626.679a31.362,31.362,0,0,0,10.7-8.888c26.529.359,18.54,54.964,18.54,54.964S441.819,633.6,432.565,610.823Z" transform="translate(-210.79 -284.79)"/></g><circle class="g" cx="19.932" cy="19.932" r="19.932" transform="translate(145.609 94.677)"/><path class="g" d="M982.2,276.46h-1.19a48.843,48.843,0,0,0,48.787,48.519v-1.19a47.649,47.649,0,0,1-47.6-47.329Z" transform="translate(-478.797 -156.882)"/><path class="g" d="M945.2,276.46h-1.19a70.877,70.877,0,0,0,70.8,70.535v-1.19A69.692,69.692,0,0,1,945.2,276.46Z" transform="translate(-463.813 -156.882)"/><path class="g" d="M907.19,276.46H906a93.526,93.526,0,0,0,93.42,93.146v-1.19A92.332,92.332,0,0,1,907.19,276.46Z" transform="translate(-448.42 -156.882)"/></svg>