<svg xmlns="http://www.w3.org/2000/svg" width="24" height="21.818" viewBox="0 0 24 21.818"><defs><style>.a{fill:#43a047;}</style></defs><g transform="translate(0 0)"><g transform="translate(0 0)"><path class="a" d="M0,47.318H4.364V34.227H0Zm24-12a2.188,2.188,0,0,0-2.182-2.182H14.945l1.091-5.018v-.327a2.288,2.288,0,0,0-.436-1.2L14.4,25.5,7.2,32.7a1.831,1.831,0,0,0-.655,1.527V45.136a2.188,2.188,0,0,0,2.182,2.182h9.818a2.155,2.155,0,0,0,1.964-1.309l3.273-7.745a1.857,1.857,0,0,0,.109-.764V35.318H24Z" transform="translate(0 -25.5)"/></g></g></svg>