<svg xmlns="http://www.w3.org/2000/svg" width="13.871" height="13.316" viewBox="0 0 13.871 13.316"><defs><style>.a{fill:#fff;}</style></defs><g transform="translate(0 0)"><g transform="translate(0 0)"><path class="a" d="M146.272,16.531a1.9,1.9,0,0,0,.477-1.292,1.687,1.687,0,0,0-1.664-1.665h-2.4a2.175,2.175,0,0,1,.069-.208,1.447,1.447,0,0,1,.1-.191c.04-.069.069-.121.087-.156q.156-.295.239-.485a3.534,3.534,0,0,0,.165-.52,2.7,2.7,0,0,0,.082-.659c0-.139,0-.251,0-.338a3.733,3.733,0,0,0-.043-.39,2.19,2.19,0,0,0-.1-.433,2.017,2.017,0,0,0-.208-.39,1.216,1.216,0,0,0-.347-.351,1.9,1.9,0,0,0-.52-.225,2.589,2.589,0,0,0-.715-.091.533.533,0,0,0-.39.165,1.505,1.505,0,0,0-.295.433,2.579,2.579,0,0,0-.169.451q-.048.191-.108.529-.078.364-.117.524a2.769,2.769,0,0,1-.152.42,1.329,1.329,0,0,1-.269.416,12.814,12.814,0,0,0-.876,1.04q-.425.555-.876,1.049t-.659.512a.569.569,0,0,0-.373.178.523.523,0,0,0-.156.377v5.557a.519.519,0,0,0,.165.386.573.573,0,0,0,.39.169,6.338,6.338,0,0,1,1.37.382q.667.225,1.045.342t1.053.251a6.441,6.441,0,0,0,1.248.134h1.118a2.154,2.154,0,0,0,1.708-.676,2.084,2.084,0,0,0,.425-1.569,1.686,1.686,0,0,0,.468-.815,1.783,1.783,0,0,0,0-1.014,1.8,1.8,0,0,0,.373-1.188A2.067,2.067,0,0,0,146.272,16.531Z" transform="translate(-132.878 -9.136)"/><path class="a" d="M3.052,191.864H.555a.533.533,0,0,0-.39.165.533.533,0,0,0-.165.39v5.548a.534.534,0,0,0,.165.39.534.534,0,0,0,.39.165h2.5a.562.562,0,0,0,.555-.555v-5.548a.563.563,0,0,0-.555-.555Zm-1,5.388a.54.54,0,0,1-.39.16.555.555,0,0,1-.394-.945.549.549,0,0,1,.785,0,.549.549,0,0,1,0,.784Z" transform="translate(0 -186.316)"/></g></g></svg>