<svg xmlns="http://www.w3.org/2000/svg" width="103.048" height="103.047" viewBox="0 0 103.048 103.047"><defs><style>.a{fill:rgba(67,160,71,0.8);}.b{fill:rgba(67,160,71,0.2);}.c{fill:rgba(67,160,71,0.7);}.d{fill:rgba(67,160,71,0.1);}.e{fill:rgba(67,160,71,0.6);}.f{fill:rgba(67,160,71,0.05);}.g{fill:rgba(67,160,71,0.5);}.h{fill:#fff;}.i{fill:rgba(67,160,71,0.4);}.j{fill:#43a047;}.k{fill:rgba(67,160,71,0.3);}.l{fill:rgba(67,160,71,0.9);}</style></defs><circle class="a" cx="4.986" cy="4.986" r="4.986" transform="translate(46.538)"/><circle class="b" cx="4.986" cy="4.986" r="4.986" transform="translate(46.538 93.075)"/><circle class="c" cx="4.986" cy="4.986" r="4.986" transform="translate(23.269 6.15)"/><path class="d" d="M345.423,421.008a4.989,4.989,0,1,1-6.814-1.828A5.13,5.13,0,0,1,345.423,421.008Z" transform="translate(-266.309 -331.59)"/><path class="e" d="M37.195,112.641a4.989,4.989,0,1,1-6.814,1.828A4.941,4.941,0,0,1,37.195,112.641Z" transform="translate(-23.566 -88.707)"/><path class="f" d="M425.995,336.78a4.989,4.989,0,1,1-6.814,1.828A5.046,5.046,0,0,1,425.995,336.78Z" transform="translate(-331.59 -266.309)"/><circle class="g" cx="4.986" cy="4.986" r="4.986" transform="translate(0 46.538)"/><circle class="h" cx="4.986" cy="4.986" r="4.986" transform="translate(93.075 46.538)"/><path class="i" d="M31.927,336.78a4.989,4.989,0,1,1-1.828,6.814A4.978,4.978,0,0,1,31.927,336.78Z" transform="translate(-23.284 -266.309)"/><path class="j" d="M421.008,112.78a4.989,4.989,0,1,1-1.828,6.814A5.13,5.13,0,0,1,421.008,112.78Z" transform="translate(-331.59 -88.847)"/><path class="k" d="M112.78,421.008a4.989,4.989,0,1,1,1.828,6.814A5.13,5.13,0,0,1,112.78,421.008Z" transform="translate(-88.847 -331.59)"/><path class="l" d="M336.78,32.208a4.989,4.989,0,1,1,1.828,6.814A5.046,5.046,0,0,1,336.78,32.208Z" transform="translate(-266.309 -23.566)"/></svg>