<svg xmlns="http://www.w3.org/2000/svg" width="11.626" height="18.088" viewBox="0 0 11.626 18.088"><defs><style>.a{opacity:0.5;}</style></defs><g class="a" transform="translate(-91.454)"><g transform="translate(96.804 11.731)"><g transform="translate(0)"><path d="M243.366,332.068a.463.463,0,1,0,.463.463A.463.463,0,0,0,243.366,332.068Z" transform="translate(-242.903 -332.068)"/></g></g><g transform="translate(91.454)"><g transform="translate(0)"><path d="M101.852,7.753h-.171V4.414a4.414,4.414,0,0,0-8.828,0V7.753h-.171a1.23,1.23,0,0,0-1.228,1.228v6.676a2.434,2.434,0,0,0,2.431,2.431h6.764a2.434,2.434,0,0,0,2.431-2.431V8.981A1.23,1.23,0,0,0,101.852,7.753ZM97.8,13.62V14.5a.529.529,0,0,1-1.058,0V13.62a1.521,1.521,0,1,1,1.058,0Zm1.25-5.868H95.488V4.395a1.779,1.779,0,0,1,3.558,0V7.753Z" transform="translate(-91.454)"/></g></g></g></svg>