<svg xmlns="http://www.w3.org/2000/svg" width="20" height="15" viewBox="0 0 20 15"><defs><style>.a{fill:#43a047;}</style></defs><g transform="translate(0 -60.651)"><path class="a" d="M20,73.151a2.478,2.478,0,0,1-.321,1.2l-6.315-7.065,6.246-5.465A2.482,2.482,0,0,1,20,63.151v10Zm-10-4.58,8.692-7.6a2.469,2.469,0,0,0-1.192-.315H2.5a2.46,2.46,0,0,0-1.191.315Zm2.423-.46-2.012,1.761a.627.627,0,0,1-.823,0L7.576,68.111,1.182,75.266a2.47,2.47,0,0,0,1.318.385h15a2.47,2.47,0,0,0,1.318-.385ZM.389,61.823A2.482,2.482,0,0,0,0,63.151v10a2.47,2.47,0,0,0,.321,1.2l6.314-7.067Z"/></g></svg>