<svg xmlns="http://www.w3.org/2000/svg" xmlns:xlink="http://www.w3.org/1999/xlink" width="177.126" height="138.594" viewBox="0 0 177.126 138.594"><defs><style>.a,.j{fill:#43a047;}.a,.d,.g,.l{opacity:0.1;}.b{fill:url(#a);}.c{fill:#efb7b9;}.e{fill:#dce6f2;}.f{fill:#965d7b;}.h{fill:#444053;}.i{fill:#a36468;}.k{opacity:0.05;}.l{fill:#fff;}.m{fill:#a8a8a8;}.n{opacity:0.2;}</style><linearGradient id="a" y1="0.5" x2="1" y2="0.5" gradientUnits="objectBoundingBox"><stop offset="0" stop-color="gray" stop-opacity="0.251"/><stop offset="0.54" stop-color="gray" stop-opacity="0.122"/><stop offset="1" stop-color="gray" stop-opacity="0.102"/></linearGradient></defs><g transform="translate(0.004 -0.003)"><ellipse class="a" cx="30.897" cy="5.853" rx="30.897" ry="5.853" transform="translate(31.232 124.207)"/><path class="a" d="M198.138,74.578c-11.355-.393-22.17-4.06-32.5-8.071S145.085,58.054,134,55.929c-7.129-1.367-15.282-1.562-21.024,2.256-5.528,3.684-7.315,10.027-8.274,15.917-.723,4.432-1.147,9.1.832,13.247,1.376,2.881,3.814,5.3,5.5,8.062,5.872,9.6,1.721,21.44-4.641,30.815-2.983,4.4-6.448,8.6-8.752,13.273s-3.369,10.052-1.353,14.834c2,4.737,6.757,8.288,11.913,10.789,10.473,5.079,22.809,6.532,34.846,7.357,26.639,1.821,53.418,1.033,80.127.242,9.885-.291,19.812-.588,29.536-2.116,5.4-.849,10.975-2.2,14.9-5.45a12.473,12.473,0,0,0,2.874-16.294c-5.593-8.685-21.054-10.841-24.969-20.159-2.151-5.13.058-10.843,3.186-15.6,6.709-10.206,17.954-19.159,18.545-30.823.407-8.011-5-16.035-13.357-19.826-8.76-3.974-20.91-3.474-27.37,3.1C219.861,72.322,208.165,74.927,198.138,74.578Z" transform="translate(-95.23 -55.03)"/><path class="b" d="M372.876,197.749l-5.374-3.623h0l2.711-4.035-14.194-1.132-5.1,3.944-6.385-3.579-5.325.64-.063-1.4a39.609,39.609,0,0,0-.44-4.369c.023-.439.039-.942.037-1.49,0-2.307-.312-5.365-1.684-7.4l.316-2.839-2.562-3.027a19.366,19.366,0,0,1,1.4-2.362c.088-.126.175-.249.27-.368a6.37,6.37,0,0,0,5.948-6.316,4.041,4.041,0,0,0-.018-.461,1.671,1.671,0,0,0-.019-.186c.325.175.653.351.981.526.061.088.132.175.209.279h0l.016.019.1.121.032.037c.035.042.072.082.109.125l.025.028c.093.1.191.209.3.312a.317.317,0,0,1,.035.033l.132.123.037.033c.112.1.232.2.351.288l.039.028.151.1.049.032c.058.035.118.072.175.105l.021.012c.068.037.139.072.209.105l.035.014.175.074.054.019c.061.021.121.04.184.058l.039.011c.077.019.154.035.233.047h.009a1.908,1.908,0,0,0,.225.023h.051a1.934,1.934,0,0,0,.2,0h.044a2.078,2.078,0,0,0,.251-.03,2.769,2.769,0,0,0,1.105-.4.965.965,0,0,0,.225-.209.827.827,0,0,0-.035-.963h0c-.137-.326-1.025-.556-1.025-.556s-2.807-1.172-2.807-2.105-.7-5.776-7.946-6.883c0,0-4.713-.265-6.037,2.258l-.028.295c-.389.244-.712.733-1.1.877a1.791,1.791,0,0,0-.475.175v-.033h0a.453.453,0,0,0-.107.139,1.4,1.4,0,0,0-.146.526,1.981,1.981,0,0,1-.23.637,1.418,1.418,0,0,1-.105.161h0l-.03.047a1.28,1.28,0,0,0,.6-.1,2.97,2.97,0,0,1-.175.7.583.583,0,0,0,.54-.323V156.5l.023-.032a1.482,1.482,0,0,0,.109-.254l-.019.021c.035-.114.067-.23.105-.342a.537.537,0,0,1,.086-.175.425.425,0,0,1,.363-.121l-.072,1.521h.032a2.074,2.074,0,0,1-.154.319c-.249.4-.7.679-.868,1.121a1.65,1.65,0,0,0-.081.663c0,.132.016.265.026.4v-.011a1.48,1.48,0,0,1-.158.967c-.13.193-.339.339-.411.558a.544.544,0,0,0-.026.189,2.129,2.129,0,0,0,.119.563.025.025,0,0,0,0-.011.856.856,0,0,1,.03.414c-.079.351-.505.644-.484.979a.378.378,0,0,0,.019.13.71.71,0,0,0,.4.351,1.544,1.544,0,0,0,.891.2,1.172,1.172,0,0,0,.333-.114c-.123.282-.249.561-.377.826-.019.042-.04.084-.061.126,0,0-1.084-.725-1.7.753a3.276,3.276,0,0,0-.381.99,2.355,2.355,0,0,1-.13.407,2.62,2.62,0,0,1-1.172,1.053c-1.256.575-6.33,6.9-6.42,8.543a9.562,9.562,0,0,1-.323,1.891,11.255,11.255,0,0,0-.3,4.472,8.56,8.56,0,0,0,.311,1.426,31.96,31.96,0,0,1,.9,4.692l.583,5.3a15.085,15.085,0,0,0,.095,2.191c-.595.679-2.983,3.509-2.07,4.279a3.367,3.367,0,0,0,2.619.382,22.293,22.293,0,0,0-1.616,5.651c-.175,2.539.3,5.9,1.053,7.194s3.262,4.6,3.262,4.6-.118,4.544.779,6.2a18.06,18.06,0,0,1,1.258,5.076s.837,2.891.418,3.955.777,1.948-.479,2.655-2.863,16.643-2.863,16.643-.647,10.445,0,10.976a.657.657,0,0,0,.111.065v3.509s-.449.737,1.377.886c1.251.1,4.8.326,6.9.458l1.63.1s3.86.768,5.565,0,4.728-.751,4.279-2.781a5.774,5.774,0,0,0-.239-.812c-.493-1.26-1.33-1.4-2.872-1.755-.089-.019-.175-.037-.254-.051-1.625-.282-2.158.474-3.069-.511-.791-.851-3.311-1.8-4.169-2.105.021-.063.047-.125.068-.189a1.285,1.285,0,0,1-.651-.318l2.325.147,1.384.086s3.281.654,4.737,0,4.018-.637,3.635-2.362a4.953,4.953,0,0,0-.2-.691c-.419-1.07-1.132-1.188-2.442-1.484-.075-.016-.146-.032-.216-.044-1.381-.24-1.833.4-2.607-.433a12,12,0,0,0-3.509-1.783c0-.389-.526-.944-.858-1.5-.389-.649.33-2.921.33-2.921l.411-9.427a1.821,1.821,0,0,1,.491-.14s1.856-1.772,1.437-3.66a12.129,12.129,0,0,1-.133-1.725,8.86,8.86,0,0,0,1.69-1.919c.389-.84,0-4.913,0-4.913V212.275l3.105.314,2.818.29.858.088,2.818.284,6.476.654,5.836-1.105,2.525-.477,5.192-.983v-12.7Zm-42.742-42.093-.361-.039C329.892,155.623,330.018,155.646,330.134,155.656Z" transform="translate(-278.992 -134.278)"/><path class="c" d="M494.608,433.907c-1.755,2.511-8.062,1.181-8.062,1.181l-4.888-4.574-.658-.619,1.1-2.344s.351.1.953.268C486.216,428.736,496.089,431.8,494.608,433.907Z" transform="translate(-413.319 -362.188)"/><path class="d" d="M483.053,427.818a10.294,10.294,0,0,1-1.395,2.695l-.658-.619,1.1-2.344S482.458,427.647,483.053,427.818Z" transform="translate(-413.319 -362.188)"/><path class="e" d="M376.977,278.074s-4.506,2-4.285,6.906a80.912,80.912,0,0,0,1.032,9.432s-.921,7.385,2.914,9.288,7.385,3.469,7.385,3.469,6,.646,6.746.912,3.076-3.811,2.646-4.446-5.937-1.967-6.639-3.027a5.859,5.859,0,0,0-2.325-1.714s-1.676-1.014-1.79-1.93a4.167,4.167,0,0,1,.44-2c.112-.4.4-4.281.4-4.281S385.39,276.875,376.977,278.074Z" transform="translate(-324.009 -238.877)"/><path class="d" d="M387.671,370.39s-6.181,1.035-5.583,3.2A13.1,13.1,0,0,1,387.671,370.39Z" transform="translate(-331.728 -315.057)"/><path class="d" d="M401.118,375.38s-3.4,2.774-2.734,2.916S401.118,375.38,401.118,375.38Z" transform="translate(-345.128 -319.171)"/><path class="d" d="M421.176,380.89s-.911,1.865-.351,1.739S421.176,380.89,421.176,380.89Z" transform="translate(-363.552 -323.715)"/><path class="d" d="M395.034,305.629l-.375-.107a1.073,1.073,0,0,0,.049-.767c-.43-.635-5.934-1.965-6.634-3.027a5.828,5.828,0,0,0-2.325-1.714s-1.676-1.014-1.79-1.93a4.166,4.166,0,0,1,.44-2c.112-.4.4-4.283.4-4.283s1.886-13.806-6.527-12.608c0,0-4.506,2-4.286,6.908a80.689,80.689,0,0,0,1.033,9.432s-.921,7.385,2.914,9.288,7.385,3.469,7.385,3.469,6,.644,6.746.912c.283.1.793-.423,1.293-1.144l.284.265,4.888,4.572s6.307,1.332,8.062-1.179C408.072,309.6,398.2,306.545,395.034,305.629Z" transform="translate(-325.073 -239.8)"/><path class="f" d="M377.406,168.7a1.491,1.491,0,0,0-.486.188c-.175.146-.175.395-.219.612a2.014,2.014,0,0,1-.351.839,1.262,1.262,0,0,0,.584-.1,3.007,3.007,0,0,1-.175.7.568.568,0,0,0,.526-.321A3.38,3.38,0,0,0,377.5,170a.507.507,0,0,1,.084-.175c.161-.191.461-.105.711-.081a1.167,1.167,0,0,0,1.067-.512c.265-.4.281-1.43-.351-1.539C378.355,167.589,377.945,168.5,377.406,168.7Z" transform="translate(-327.03 -147.92)"/><g class="g" transform="translate(49.346 20.92)"><path d="M378.2,174.511c.016-.086.026-.175.046-.261h0a1.029,1.029,0,0,0-.219.612,1.931,1.931,0,0,1-.1.37,2.011,2.011,0,0,0,.277-.721Z" transform="translate(-377.671 -174.25)"/><path d="M377.083,180.7a2.918,2.918,0,0,0,.175-.7,1.256,1.256,0,0,1-.556.1,2.028,2.028,0,0,1-.2.351,1.249,1.249,0,0,0,.583-.095,2.916,2.916,0,0,1-.175.7.57.57,0,0,0,.526-.321,1.311,1.311,0,0,0,.105-.251A.526.526,0,0,1,377.083,180.7Z" transform="translate(-376.5 -178.991)"/><path d="M384.659,175.18c-.249-.025-.551-.111-.712.081a.542.542,0,0,0-.084.175c-.016.046-.03.093-.042.14.167-.132.437-.061.663-.039a1.172,1.172,0,0,0,1.067-.512.973.973,0,0,0,.118-.275A1.168,1.168,0,0,1,384.659,175.18Z" transform="translate(-382.536 -174.662)"/></g><path class="e" d="M312.977,201l2.676,3.218-.349,3.248L312.07,202.4Z" transform="translate(-257.32 -165.731)"/><path class="d" d="M315.651,204.218l-.328,3.055-.021.193-2.918-4.569-.314-.493.091-.142.814-1.262.181.218Z" transform="translate(-257.32 -165.731)"/><path class="c" d="M383.543,208.978a5.365,5.365,0,0,0-2.523,2.233,19.067,19.067,0,0,0-1.362,2.341c-.247.495-.465.97-.646,1.384l-.126.295c-.305.721-.475,1.2-.475,1.2s-6.93-5.211-5.834-5.562c.368-.118.853-.907,1.332-1.9l.06-.126c.3-.639.6-1.351.867-2.021.542-1.377.944-2.574.944-2.574S386.306,208.189,383.543,208.978Z" transform="translate(-323.822 -178.066)"/><path class="h" d="M459.26,202.58s1.6,2.895,3.749,2.5,1.265-1.555,1.265-1.555Z" transform="translate(-395.394 -176.689)"/><path class="i" d="M381.019,741.622c-1.418.647-4.623,0-4.623,0l-1.351-.084c-1.755-.112-4.692-.3-5.73-.386-1.516-.125-1.144-.746-1.144-.746v-3.753l7.355-1.863s2.907.995,3.7,1.863c.756.828,1.2.191,2.548.43.067.012.137.026.211.044,1.281.293,1.976.409,2.386,1.47a4.931,4.931,0,0,1,.2.684C384.951,740.99,382.435,740.978,381.019,741.622Z" transform="translate(-320.253 -615.522)"/><path class="d" d="M384.374,749.374a5.5,5.5,0,0,1-.828.425c-.965.44-1.883.977-2.858,1.393a6.684,6.684,0,0,1-3.083.633,4.6,4.6,0,0,0-1.646-.018,3.8,3.8,0,0,0-.914.507c-1.755-.112-4.692-.3-5.73-.386-1.516-.125-1.144-.746-1.144-.746v-.439c.054,0,.116-.016.186-.021a3.311,3.311,0,0,1,1.07.16c.761.207,1.519.411,2.281.614a1.8,1.8,0,0,1,.877-1.119,2.8,2.8,0,0,1,1.414-.325c1.181.016,2.3.576,3.477.632a1.916,1.916,0,0,0,.963-.161c.161-.081.3-.2.461-.288a3.366,3.366,0,0,1,.795-.268,17.507,17.507,0,0,0,2.272-.733c.211-.082.456-.232.428-.456-.037-.3-.505-.333-.628-.607a.351.351,0,0,1,.014-.311c.067.012.137.026.211.044C383.268,748.2,383.963,748.313,384.374,749.374Z" transform="translate(-320.253 -626.299)"/><path class="i" d="M361.791,782.741c-1.667.761-5.439,0-5.439,0l-1.588-.093c-2.056-.132-5.52-.351-6.743-.454-1.784-.147-1.346-.877-1.346-.877v-4.423l8.655-2.193s3.421,1.17,4.358,2.193c.89.974,1.4.225,3,.505.079.014.161.032.247.051,1.507.351,2.325.483,2.807,1.732a5.632,5.632,0,0,1,.233.805C366.411,782,363.458,781.981,361.791,782.741Z" transform="translate(-302.524 -648.43)"/><path class="d" d="M365.739,791.9a6.525,6.525,0,0,1-.974.5c-1.135.518-2.216,1.149-3.363,1.639a7.885,7.885,0,0,1-3.628.746,5.3,5.3,0,0,0-1.93-.021,4.472,4.472,0,0,0-1.079.6c-2.056-.132-5.52-.351-6.743-.454-1.784-.147-1.346-.877-1.346-.877v-.516a2.2,2.2,0,0,1,.219-.025,3.851,3.851,0,0,1,1.26.188l2.683.723a2.123,2.123,0,0,1,1.04-1.318,3.274,3.274,0,0,1,1.665-.383c1.39.019,2.7.677,4.092.744a2.265,2.265,0,0,0,1.13-.188c.191-.1.351-.235.544-.339a3.815,3.815,0,0,1,.935-.316,21.015,21.015,0,0,0,2.66-.863c.247-.1.537-.274.5-.537-.044-.351-.595-.393-.74-.716a.423.423,0,0,1,.018-.365c.079.014.161.032.247.051C364.439,790.518,365.256,790.655,365.739,791.9Z" transform="translate(-302.524 -661.153)"/><path class="h" d="M384.53,647.54l-.468,11.024s-.7,2.251-.321,2.895,1.023,1.286.79,1.667-3.041,4.5-3.948,2.918-1.8-8.422-1.8-8.422l.837-8.452Z" transform="translate(-329.034 -543.58)"/><path class="h" d="M410.762,491l1.3,1.74v15.138s.381,4.035,0,4.869a13.068,13.068,0,0,1-2.311,2.5l-1.623-8.334.351-8.816Z" transform="translate(-353.235 -414.506)"/><path class="d" d="M384.53,647.54l-.468,11.024s-.7,2.251-.321,2.895,1.023,1.286.79,1.667-3.041,4.5-3.948,2.918-1.8-8.422-1.8-8.422l.837-8.452Z" transform="translate(-329.034 -543.58)"/><path class="d" d="M410.762,491l1.3,1.74v15.138s.381,4.035,0,4.869a13.068,13.068,0,0,1-2.311,2.5l-1.623-8.334.351-8.816Z" transform="translate(-353.235 -414.506)"/><path class="h" d="M345.168,434.411V442.6l-1.462,6.374s-.468,15.382-.06,17.252-1.4,3.627-1.4,3.627-1.053.118-1.053.935-1.755,3.158-1.755,3.158l.058,4.562s.761,8.539-.409,10.176.409,1.872.409,1.872c-1.462,4.8-8.48,3.684-9.113,3.158s0-10.878,0-10.878,1.569-15.791,2.8-16.492.06-1.579.468-2.632-.409-3.918-.409-3.918a18.055,18.055,0,0,0-1.228-5.03c-.877-1.637-.761-6.141-.761-6.141s-2.456-3.276-3.186-4.562-1.2-4.62-1.025-7.136a22.421,22.421,0,0,1,1.579-5.6c.272-.682.468-1.125.468-1.125l.167.044,9.583,2.509Z" transform="translate(-286.339 -364.373)"/><path class="d" d="M394.7,208.921a5.365,5.365,0,0,0-2.523,2.233h-.2a6.267,6.267,0,0,1-5.439-3.146,6.173,6.173,0,0,1-.551-1.254c.542-1.377.944-2.574.944-2.574S397.463,208.131,394.7,208.921Z" transform="translate(-334.979 -178.009)"/><path class="c" d="M396.925,176.7a6.272,6.272,0,1,1-11.734-3.074,6.13,6.13,0,0,1,.663-.958A6.348,6.348,0,0,1,387.3,171.4a6.272,6.272,0,0,1,9.62,4.839C396.919,176.395,396.925,176.548,396.925,176.7Z" transform="translate(-333.651 -150.174)"/><path class="d" d="M381.825,241.2l-.021.193-2.918-4.562c-.305.721-.475,1.2-.475,1.2s-6.93-5.218-5.834-5.569c.368-.118.853-.907,1.332-1.9l.06-.126c.509,1.516,3.465,4.546,4.7,5.76.142.14.26.256.351.34l.188.175.1.1C379.748,237.276,381.636,239.311,381.825,241.2Z" transform="translate(-323.822 -199.661)"/><path class="e" d="M341.152,256.441l-.319,10.276-.056,1.83s-3.783-.351-7.313-.737a47.626,47.626,0,0,1-5.934-.842,11.168,11.168,0,0,0-2.544-.56c-.688-.093-1.228-.142-1.228-.142s-.2.06-.512.116a3.254,3.254,0,0,1-2.56-.379c-.886-.77,1.442-3.569,2.023-4.241l.128-.146-.219-2.026-.57-5.255a32.059,32.059,0,0,0-.877-4.649,8.577,8.577,0,0,1-.3-1.412,11.313,11.313,0,0,1,.295-4.432,9.664,9.664,0,0,0,.316-1.876c.088-1.623,5.044-7.9,6.272-8.466a2.6,2.6,0,0,0,1.256-1.253,2.393,2.393,0,0,0,.191-.546c.526-2.281,1.858-1.376,1.858-1.376.321,1.784,5.292,6.508,5.292,6.508l.1.1c.493.505,2.69,2.877,2.534,4.9a5.942,5.942,0,0,0,.332,2.218,37.5,37.5,0,0,1,1.728,9.825Z" transform="translate(-280.968 -199.422)"/><path class="d" d="M387.3,310.45s-1.228,2.983-2.149,3.465S387.74,314.933,387.3,310.45Z" transform="translate(-334.161 -265.633)"/><path class="d" d="M390.187,342.2s-2.807.351-2.807.877S390.187,342.2,390.187,342.2Z" transform="translate(-336.125 -291.813)"/><path class="d" d="M394.956,361.7s-4.079,8.685-5.22,8.948S394.956,361.7,394.956,361.7Z" transform="translate(-337.956 -307.891)"/><path class="d" d="M375.446,238.883l-3.374,1.467L368,234.2a2.393,2.393,0,0,0,.191-.546c.526-2.281,1.858-1.376,1.858-1.376.321,1.784,5.292,6.508,5.292,6.508Z" transform="translate(-320.145 -201.03)"/><path class="e" d="M376.446,236.883l-3.374,1.467L369,232.2a2.394,2.394,0,0,0,.191-.546c.526-2.281,1.858-1.376,1.858-1.376.321,1.784,5.292,6.508,5.292,6.508Z" transform="translate(-320.97 -199.38)"/><path class="d" d="M349.344,319.408s-3.783-.351-7.313-.737l6.334,1.658v1.93c-.277.251-.518.381-.674.314-.73-.307-6.686-1.272-6.686-1.272s-3.46-1.755-7.194-3.86a2.879,2.879,0,0,1-.263-.165,4.148,4.148,0,0,1-1.105-1.107,7.858,7.858,0,0,1-1.172-3.539,15.306,15.306,0,0,1-.091-2.172A17.809,17.809,0,0,1,331.4,308a80.718,80.718,0,0,1-.526-9.474c.044-4.913,4.649-6.667,4.649-6.667,8.466-.746,5.841,12.94,5.841,12.94s-.49,3.86-.623,4.255a4.165,4.165,0,0,0-.547,1.974c.065.921,1.683,2.023,1.683,2.023a5.907,5.907,0,0,1,2.23,1.837c.474.809,3.551,1.905,5.29,2.688Z" transform="translate(-289.536 -250.282)"/><path class="d" d="M396.236,168.968a1.987,1.987,0,0,1-.175.839,5.181,5.181,0,0,1-.312.625,2.877,2.877,0,0,1-.768.954,3.931,3.931,0,0,1-1.4.488,2.031,2.031,0,0,0-1.269.719,2.516,2.516,0,0,0-.3.86,1.849,1.849,0,0,1-.351.832.69.69,0,0,1-.821.2.83.83,0,0,1-.318-.409,5.862,5.862,0,0,1-.332-1.437,3.057,3.057,0,0,0-.493-1.377,1.233,1.233,0,0,0-1.295-.5,1.247,1.247,0,0,0-.7.681,3.9,3.9,0,0,0-.265.968q-.326,1.786-.77,3.551a.326.326,0,0,1-.058.133.253.253,0,0,1-.175.074c-.393.053-.77-.223-1.167-.193a.671.671,0,0,0-.121.019,6.269,6.269,0,0,1,.633-7.158l.032-.009a1.891,1.891,0,0,0,.7-.442,7.409,7.409,0,0,0,.7-.812l.14-.175a8,8,0,0,1,1.368-1.3,1.4,1.4,0,0,1,.467-.253,1.383,1.383,0,0,1,.442-.014,11.154,11.154,0,0,0,1.826.068,11.712,11.712,0,0,1,1.283-.13,3.948,3.948,0,0,1,2.76,1.676A2.6,2.6,0,0,1,396.236,168.968Z" transform="translate(-333.593 -146.338)"/><path class="f" d="M375.823,169.156c-.244.4-.684.672-.849,1.111-.242.637.167,1.43-.209,2-.125.191-.33.333-.4.553-.119.37.207.765.123,1.146s-.586.7-.453,1.074a.7.7,0,0,0,.386.351,1.509,1.509,0,0,0,.877.195c.479-.079.835-.549,1.321-.584.395-.028.772.246,1.165.195a.263.263,0,0,0,.175-.075.3.3,0,0,0,.058-.133q.442-1.763.772-3.551a3.825,3.825,0,0,1,.263-.968,1.258,1.258,0,0,1,.7-.681,1.237,1.237,0,0,1,1.295.5,3.039,3.039,0,0,1,.495,1.377,5.941,5.941,0,0,0,.33,1.437.839.839,0,0,0,.319.411.687.687,0,0,0,.819-.2,1.83,1.83,0,0,0,.351-.833,2.507,2.507,0,0,1,.3-.858,2.036,2.036,0,0,1,1.269-.719,3.97,3.97,0,0,0,1.4-.49,2.887,2.887,0,0,0,.768-.953,2.8,2.8,0,0,0,.481-1.465,2.69,2.69,0,0,0-.719-1.518A3.943,3.943,0,0,0,384.1,164.8a10.915,10.915,0,0,0-1.283.13,10.979,10.979,0,0,1-1.826-.07,1.435,1.435,0,0,0-.442.016,1.323,1.323,0,0,0-.465.253,8.006,8.006,0,0,0-1.37,1.3,10.056,10.056,0,0,1-.846.983,1.9,1.9,0,0,1-.7.444c-.175.049-.351.014-.518.068C376.131,168.084,376.063,168.76,375.823,169.156Z" transform="translate(-325.103 -145.538)"/><path class="d" d="M463.009,205.078c-1.4.258-2.567-.877-3.211-1.705a6.881,6.881,0,0,1-.539-.793l4.818.909.195.037S465.159,204.685,463.009,205.078Z" transform="translate(-395.394 -176.689)"/><g class="g" transform="translate(48.901 22.28)"><path d="M376.017,211a1.461,1.461,0,0,0-.1-.674c0,.018-.016.035-.021.053a1.306,1.306,0,0,0,.091.723A.528.528,0,0,0,376.017,211Z" transform="translate(-375.534 -205.359)"/><path d="M379.049,197.8a3.9,3.9,0,0,0,.014.728A3.906,3.906,0,0,0,379.049,197.8Z" transform="translate(-378.148 -195.028)"/><path d="M387.05,183.132a2.877,2.877,0,0,1-.768.954,3.92,3.92,0,0,1-1.4.488,2.027,2.027,0,0,0-1.269.719,2.528,2.528,0,0,0-.3.86,1.837,1.837,0,0,1-.351.833.685.685,0,0,1-.819.2.839.839,0,0,1-.319-.411,5.841,5.841,0,0,1-.33-1.437,3.031,3.031,0,0,0-.495-1.377,1.233,1.233,0,0,0-1.295-.5,1.253,1.253,0,0,0-.7.681,3.824,3.824,0,0,0-.263.968q-.328,1.788-.772,3.551a.3.3,0,0,1-.058.133.263.263,0,0,1-.175.075c-.393.051-.77-.223-1.165-.195-.486.035-.842.505-1.321.582a1.483,1.483,0,0,1-.877-.195.939.939,0,0,1-.321-.228.474.474,0,0,0-.065.409.684.684,0,0,0,.386.351,1.483,1.483,0,0,0,.877.195c.479-.077.835-.547,1.321-.582.395-.028.772.246,1.165.195a.263.263,0,0,0,.175-.075.3.3,0,0,0,.058-.133q.442-1.755.772-3.551a3.825,3.825,0,0,1,.263-.969,1.253,1.253,0,0,1,.7-.681,1.234,1.234,0,0,1,1.295.5,3.039,3.039,0,0,1,.495,1.377,5.941,5.941,0,0,0,.33,1.437.839.839,0,0,0,.319.411.687.687,0,0,0,.819-.2,1.837,1.837,0,0,0,.351-.833,2.529,2.529,0,0,1,.3-.86,2.044,2.044,0,0,1,1.269-.719,4,4,0,0,0,1.4-.488,2.877,2.877,0,0,0,.768-.954,2.793,2.793,0,0,0,.481-1.463,1.887,1.887,0,0,0-.021-.2A3.448,3.448,0,0,1,387.05,183.132Z" transform="translate(-373.964 -182)"/></g><path class="d" d="M399.911,173.645a6.2,6.2,0,0,1,.781,2.605c-1.563-.877-3.034-1.84-3.776-2.176-1.293-.584-6.129-.5-7.946-.442a6.129,6.129,0,0,1,.663-.958,6.348,6.348,0,0,1,1.447-1.267,6.276,6.276,0,0,1,8.839,2.233Z" transform="translate(-337.436 -150.181)"/><path class="d" d="M463.448,204.335c-.844.26-2.221-.242-3.649-.961a6.881,6.881,0,0,1-.539-.793l4.818.909C464.4,203.706,464.478,204.017,463.448,204.335Z" transform="translate(-395.394 -176.689)"/><path class="h" d="M391.57,154.043s-4.606-.263-5.9,2.237l-.209,2.216-.351-.039-.07,1.507s7.039-.307,8.641.416,6.579,4.365,8.574,3.751-.175-1.184-.175-1.184-2.746-1.163-2.746-2.076S398.653,155.139,391.57,154.043Z" transform="translate(-334.196 -136.661)"/><path class="d" d="M371.63,622.28s2.939,2.851,4.211,2.632C375.841,624.912,372.244,624.6,371.63,622.28Z" transform="translate(-323.139 -522.752)"/><path class="d" d="M368.13,629.81s.263,1.467.965,1.323S368.13,629.81,368.13,629.81Z" transform="translate(-320.253 -528.961)"/><path class="d" d="M377.7,769.53s-4.172,3.246-3.469,3.334S377.7,769.53,377.7,769.53Z" transform="translate(-325.22 -644.167)"/><path class="j" d="M330.96,337l13.51-2.2v12.79l-12.836-.672Z" transform="translate(-272.896 -276.056)"/><path class="k" d="M330.96,337l13.51-2.2v12.79l-12.836-.672Z" transform="translate(-272.896 -276.056)"/><path class="j" d="M407.96,334.8l16.2,1.212-.9,11.131-15.3.447Z" transform="translate(-336.386 -276.056)"/><path class="d" d="M407.96,334.8l16.2,1.212-.9,11.131-15.3.447Z" transform="translate(-336.386 -276.056)"/><path class="j" d="M412.941,312.55l-4.981,3.9,16.2,1.212,2.648-4Z" transform="translate(-336.386 -257.71)"/><path class="j" d="M303.08,316.071l12.162-1.481,6.239,3.546-13.51,2.2Z" transform="translate(-249.907 -259.392)"/><path class="j" d="M347.431,348.453V365.94l-6.329-.649-2.753-.281-.839-.088-2.751-.282-3.8-.39V347.33l13.508.919Z" transform="translate(-272.896 -286.388)"/><path class="j" d="M438.08,341.71v17.054l-5.072.974-2.467.474-5.7,1.095V343.819Z" transform="translate(-350.304 -281.754)"/><path class="k" d="M438.08,341.71v17.054l-5.072.974-2.467.474-5.7,1.095V343.819Z" transform="translate(-350.304 -281.754)"/><path class="j" d="M303.08,351.011l4.892-3.681,16.471,1.123-2.425,4.085Z" transform="translate(-249.907 -286.388)"/><path class="l" d="M303.08,351.011l4.892-3.681,16.471,1.123-2.425,4.085Z" transform="translate(-249.907 -286.388)"/><path class="j" d="M438.08,341.71l-13.24,2.109,4.309,3.86,14.182-2.379Z" transform="translate(-350.304 -281.754)"/><path class="l" d="M438.08,341.71l-13.24,2.109,4.309,3.86,14.182-2.379Z" transform="translate(-350.304 -281.754)"/><path class="l" d="M459.8,426.823l-2.467.474v-3.644l2.311-.582Z" transform="translate(-377.094 -348.839)"/><path class="l" d="M375.833,435.96v2.411l-2.753-.281v-2.13Z" transform="translate(-307.626 -359.467)"/><path class="l" d="M355.371,440.29v1.283l-2.751-.282v-1Z" transform="translate(-290.756 -363.038)"/><path class="d" d="M447.791,450.718c-1.886,2.412-8.115.746-8.115.746l-4.628-4.828-.628-.654,1.228-2.281s.351.116.937.319C439.687,445.1,449.379,448.688,447.791,450.718Z" transform="translate(-374.912 -375.504)"/><path class="c" d="M446.791,448.718c-1.886,2.412-8.115.746-8.115.746l-4.628-4.828-.628-.654,1.228-2.281s.351.116.937.319C438.687,443.1,448.379,446.688,446.791,448.718Z" transform="translate(-374.087 -373.855)"/><path class="d" d="M435.545,442.019a10.372,10.372,0,0,1-1.537,2.616l-.628-.654,1.228-2.281S434.961,441.816,435.545,442.019Z" transform="translate(-374.054 -373.855)"/><path class="e" d="M336.527,287.859s-4.606,1.755-4.649,6.667A80.725,80.725,0,0,0,332.4,304s-1.316,7.325,2.412,9.431,7.194,3.86,7.194,3.86,5.957.965,6.688,1.272,3.274-3.641,2.879-4.3-5.818-2.281-6.462-3.377a5.843,5.843,0,0,0-2.23-1.835s-1.618-1.1-1.683-2.025a4.145,4.145,0,0,1,.547-1.974c.135-.395.625-4.255.625-4.255S344.993,287.1,336.527,287.859Z" transform="translate(-290.361 -246.981)"/><path class="d" d="M343.251,380.7s-6.229.7-5.746,2.895A13.1,13.1,0,0,1,343.251,380.7Z" transform="translate(-294.979 -323.558)"/><path class="d" d="M356.442,385.7s-3.535,2.588-2.886,2.763S356.442,385.7,356.442,385.7Z" transform="translate(-308.17 -327.681)"/><path class="d" d="M376.5,391.7s-1.009,1.814-.439,1.719S376.5,391.7,376.5,391.7Z" transform="translate(-326.647 -332.628)"/><path class="j" d="M721.031,167.379s-6.667-.4-5.888,4.276a1.141,1.141,0,0,0,.593,1.2s.012-.351.684-.23a3.071,3.071,0,0,0,.725.035,1.5,1.5,0,0,0,.888-.367h0s1.876-.774,2.605-3.841c0,0,.54-.67.526-.842l-1.126.482a2.019,2.019,0,0,1,.081,1.488s-.035-1.458-.253-1.425c-.044,0-.584.282-.584.282a3.328,3.328,0,0,1,.161,2.444s.19-1.744-.368-2.342l-.793.463a3.5,3.5,0,0,1,.249,2.655,4.975,4.975,0,0,0-.416-2.542l-.719.56a3.424,3.424,0,0,1,.284,2.432s-.058-2.13-.44-2.291a4.34,4.34,0,0,0-.723.783s.5,1.053.188,1.6c0,0-.189-1.419-.351-1.426a4.723,4.723,0,0,0-.691,1.579,3.415,3.415,0,0,1,.539-1.674,1.879,1.879,0,0,0-.958.5s.1-.665,1.112-.723a4.8,4.8,0,0,1,.656-.758,4.114,4.114,0,0,0-1.623.188,1.838,1.838,0,0,1,1.809-.351l.7-.579a6.054,6.054,0,0,0-1.895.019,2.306,2.306,0,0,1,2.086-.151l.772-.461a6.931,6.931,0,0,0-1.809-.156,2.775,2.775,0,0,1,2.035.032l.553-.247s-.832-.163-1.074-.189-.256-.093-.256-.093a2.87,2.87,0,0,1,1.56.175A6.885,6.885,0,0,0,721.031,167.379Z" transform="translate(-606.329 -147.658)"/><path class="a" d="M836.491,300.719s-6.667-.4-5.888,4.276a1.141,1.141,0,0,0,.593,1.2s.012-.351.686-.23a3.074,3.074,0,0,0,.725.035,1.5,1.5,0,0,0,.877-.365h0s1.877-.775,2.607-3.842c0,0,.539-.668.518-.84l-1.126.481a2.024,2.024,0,0,1,.082,1.488s-.037-1.458-.253-1.425c-.044,0-.586.282-.586.282a3.326,3.326,0,0,1,.163,2.444s.19-1.744-.37-2.342l-.784.458a3.5,3.5,0,0,1,.249,2.655,4.975,4.975,0,0,0-.416-2.542l-.718.561a3.429,3.429,0,0,1,.284,2.43s-.058-2.13-.44-2.291a4.4,4.4,0,0,0-.725.783s.5,1.053.189,1.6c0,0-.189-1.419-.351-1.426a4.724,4.724,0,0,0-.691,1.579,3.425,3.425,0,0,1,.54-1.674,1.888,1.888,0,0,0-.96.5s.1-.665,1.114-.723a4.381,4.381,0,0,1,.656-.758,4.114,4.114,0,0,0-1.623.188,1.823,1.823,0,0,1,1.807-.342l.7-.579a6.055,6.055,0,0,0-1.895.019,2.306,2.306,0,0,1,2.086-.151l.772-.461a7.031,7.031,0,0,0-1.811-.156,2.781,2.781,0,0,1,2.037.032l.553-.247s-.832-.163-1.076-.189-.256-.093-.256-.093a2.875,2.875,0,0,1,1.562.175A7.078,7.078,0,0,0,836.491,300.719Z" transform="translate(-701.531 -257.603)"/><path class="a" d="M612.224,246.1s1.535-6.507-3.209-6.53a1.14,1.14,0,0,0-1.284.379s.339.072.109.714a3.122,3.122,0,0,0-.158.7,1.507,1.507,0,0,0,.209.935h0s.444,1.983,3.334,3.225c0,0,.568.646.74.653l-.281-1.191a2.016,2.016,0,0,1-1.481-.175s1.444.212,1.446,0c0-.044-.175-.625-.175-.625a3.331,3.331,0,0,1-2.437-.258s1.686.484,2.372.037l-.316-.863a3.5,3.5,0,0,1-2.66-.207,4.981,4.981,0,0,0,2.577.025l-.43-.8a3.429,3.429,0,0,1-2.444-.135s2.105.305,2.333-.042a4.359,4.359,0,0,0-.647-.847s-1.116.312-1.607-.086c0,0,1.43.054,1.463-.1a4.73,4.73,0,0,0-1.444-.953,3.439,3.439,0,0,1,1.56.818,1.893,1.893,0,0,0-.326-1.03s.639.211.526,1.228a4.373,4.373,0,0,1,.633.775,4.126,4.126,0,0,0,.091-1.632,1.824,1.824,0,0,1,.03,1.84l.449.8a5.823,5.823,0,0,0,.3-1.87,2.3,2.3,0,0,1-.207,2.081l.325.84a7.026,7.026,0,0,0,.461-1.755,2.773,2.773,0,0,1-.379,2l.151.586s.3-.791.368-1.026.135-.237.135-.237a2.874,2.874,0,0,1-.437,1.509A6.97,6.97,0,0,0,612.224,246.1Z" transform="translate(-517.768 -207.135)"/><path class="a" d="M514.742,281.809s-5.355-4.006-7.269.333a1.142,1.142,0,0,0-.165,1.33s.2-.283.7.186a3.073,3.073,0,0,0,.586.428,1.505,1.505,0,0,0,.942.175h0s1.993.384,4.288-1.776c0,0,.819-.263.9-.418l-1.209-.212a2.027,2.027,0,0,1-.749,1.288s.77-1.239.57-1.328c-.04-.019-.644-.088-.644-.088a3.329,3.329,0,0,1-1.207,2.132s1.118-1.353.979-2.16l-.918-.049a3.5,3.5,0,0,1-1.251,2.356,5.009,5.009,0,0,0,1.053-2.353l-.909.074a3.419,3.419,0,0,1-1.1,2.184s1.121-1.811.891-2.155a4.411,4.411,0,0,0-1.035.254s-.16,1.147-.721,1.439c0,0,.623-1.29.5-1.379a4.716,4.716,0,0,0-1.449.942,3.427,3.427,0,0,1,1.372-1.1,1.89,1.89,0,0,0-1.074-.112s.446-.5,1.326.009a4.43,4.43,0,0,1,.965-.272,4.106,4.106,0,0,0-1.46-.735,1.827,1.827,0,0,1,1.7.7l.911-.093a6.01,6.01,0,0,0-1.593-1.025s.847-.107,1.825,1.019l.9.04a7,7,0,0,0-1.425-1.126,2.774,2.774,0,0,1,1.683,1.146l.6.1s-.605-.593-.795-.747-.163-.219-.163-.219a2.882,2.882,0,0,1,1.209,1A7.091,7.091,0,0,0,514.742,281.809Z" transform="translate(-434.887 -240.628)"/><path class="a" d="M616.352,69.7s-5.355-4.007-7.269.333a1.142,1.142,0,0,0-.165,1.33s.2-.282.7.186a3.123,3.123,0,0,0,.588.426,1.5,1.5,0,0,0,.942.175h0s1.993.384,4.288-1.777c0,0,.819-.261.895-.418l-1.209-.209a2.018,2.018,0,0,1-.749,1.288s.772-1.239.572-1.328c-.04-.019-.644-.088-.644-.088a3.344,3.344,0,0,1-1.214,2.132s1.116-1.353.979-2.16l-.918-.049a3.5,3.5,0,0,1-1.251,2.355,5.009,5.009,0,0,0,1.053-2.353l-.907.074a3.428,3.428,0,0,1-1.1,2.186s1.123-1.811.893-2.155a4.411,4.411,0,0,0-1.035.254s-.16,1.147-.721,1.439c0,0,.623-1.29.5-1.381a4.734,4.734,0,0,0-1.449.944,3.411,3.411,0,0,1,1.372-1.1,1.877,1.877,0,0,0-1.076-.112s.447-.5,1.328.009a4.333,4.333,0,0,1,.965-.272,4.129,4.129,0,0,0-1.46-.737,1.829,1.829,0,0,1,1.7.7l.911-.093a6.015,6.015,0,0,0-1.593-1.026s.847-.105,1.826,1.021l.9.039a6.931,6.931,0,0,0-1.426-1.125,2.775,2.775,0,0,1,1.684,1.146l.6.1s-.607-.586-.8-.737-.163-.218-.163-.218a2.878,2.878,0,0,1,1.209,1A7.573,7.573,0,0,0,616.352,69.7Z" transform="translate(-518.669 -65.729)"/><path class="a" d="M735.407,85.752s-2.141-6.336-6.178-3.846a1.153,1.153,0,0,0-.89,1s.325-.119.468.547a3.159,3.159,0,0,0,.24.686,1.519,1.519,0,0,0,.674.683h0s1.425,1.447,4.541.968c0,0,.823.249.974.163l-.877-.861a2.018,2.018,0,0,1-1.347.635s1.339-.582,1.228-.77c-.023-.037-.481-.435-.481-.435a3.334,3.334,0,0,1-2.2,1.07s1.686-.481,2.03-1.228l-.726-.56a3.5,3.5,0,0,1-2.367,1.228s1.755-.563,2.2-1.342l-.79-.454a3.4,3.4,0,0,1-2.144,1.177s1.951-.854,1.956-1.269a4.386,4.386,0,0,0-1-.377s-.783.854-1.4.777c0,0,1.242-.711,1.19-.856a4.708,4.708,0,0,0-1.728-.044,3.42,3.42,0,0,1,1.755-.132,1.893,1.893,0,0,0-.823-.7s.653-.16,1.09.76a4.419,4.419,0,0,1,.948.323,4.124,4.124,0,0,0-.784-1.433,1.827,1.827,0,0,1,1,1.547l.8.439a5.922,5.922,0,0,0-.732-1.755s.76.393.925,1.876l.719.542a6.975,6.975,0,0,0-.537-1.737,2.778,2.778,0,0,1,.737,1.9l.437.418s-.161-.832-.228-1.067-.012-.251-.012-.251a2.893,2.893,0,0,1,.426,1.512A6.991,6.991,0,0,0,735.407,85.752Z" transform="translate(-617.263 -76.71)"/><path class="a" d="M660.179,108.131s-6.65-.74-6.1,3.977a1.139,1.139,0,0,0,.526,1.228s.03-.351.7-.193a3.229,3.229,0,0,0,.723.072,1.509,1.509,0,0,0,.9-.321h0s1.914-.679,2.807-3.706c0,0,.572-.64.56-.814l-1.149.425a1.957,1.957,0,0,1,0,1.49s.037-1.458-.175-1.435c-.044,0-.6.253-.6.253a3.346,3.346,0,0,1,.039,2.456s.277-1.733-.251-2.358l-.816.421a3.487,3.487,0,0,1,.114,2.665,4.972,4.972,0,0,0-.286-2.56l-.746.526a3.426,3.426,0,0,1,.16,2.442s.051-2.13-.323-2.311a4.563,4.563,0,0,0-.763.744s.444,1.07.109,1.605c0,0-.118-1.426-.272-1.44a4.719,4.719,0,0,0-.772,1.547,3.416,3.416,0,0,1,.625-1.646,1.888,1.888,0,0,0-.982.447s.13-.658,1.147-.665c0,0,.553-.686.7-.723a4.125,4.125,0,0,0-1.632.105,1.82,1.82,0,0,1,1.823-.251l.739-.542a5.69,5.69,0,0,0-1.9-.095,2.285,2.285,0,0,1,2.091-.044l.795-.423a6.987,6.987,0,0,0-1.8-.247,2.756,2.756,0,0,1,2.032.135l.565-.219s-.823-.205-1.065-.244-.251-.105-.251-.105a2.886,2.886,0,0,1,1.551.253A7.178,7.178,0,0,0,660.179,108.131Z" transform="translate(-556.004 -98.777)"/><path class="a" d="M991.8,402.3s-6.646-.74-6.1,3.972a1.139,1.139,0,0,0,.526,1.228s.03-.351.7-.195a3.035,3.035,0,0,0,.723.072,1.5,1.5,0,0,0,.9-.321h0s1.914-.679,2.8-3.7c0,0,.572-.642.56-.814l-1.149.423a1.962,1.962,0,0,1,0,1.491s.037-1.46-.175-1.435c-.044,0-.6.251-.6.251a3.346,3.346,0,0,1,.039,2.456s.277-1.732-.251-2.358l-.816.423a3.493,3.493,0,0,1,.116,2.665,4.986,4.986,0,0,0-.288-2.562l-.746.526a3.422,3.422,0,0,1,.16,2.441s.051-2.13-.323-2.309a4.632,4.632,0,0,0-.763.744s.446,1.07.109,1.605c0,0-.118-1.426-.272-1.44a4.718,4.718,0,0,0-.772,1.547,3.415,3.415,0,0,1,.625-1.646,1.872,1.872,0,0,0-.983.447s.13-.66,1.147-.667c0,0,.554-.686.7-.721a4.111,4.111,0,0,0-1.632.1,1.825,1.825,0,0,1,1.825-.249l.737-.542a5.864,5.864,0,0,0-1.893-.077,2.287,2.287,0,0,1,2.091-.046l.795-.421a6.987,6.987,0,0,0-1.8-.247,2.756,2.756,0,0,1,2.032.135l.565-.221s-.823-.205-1.065-.242-.251-.105-.251-.105a2.876,2.876,0,0,1,1.551.251A6.874,6.874,0,0,0,991.8,402.3Z" transform="translate(-829.441 -341.334)"/><path class="a" d="M1049.705,437.682s-6.646-.739-6.1,3.972a1.142,1.142,0,0,0,.526,1.228s.03-.351.7-.193a3.1,3.1,0,0,0,.721.07,1.516,1.516,0,0,0,.9-.319h0s1.912-.679,2.8-3.706c0,0,.574-.64.56-.814l-1.149.423a1.961,1.961,0,0,1,0,1.491s.037-1.458-.175-1.435c-.044,0-.6.251-.6.251a3.346,3.346,0,0,1,.039,2.456s.277-1.732-.251-2.356l-.816.421a3.493,3.493,0,0,1,.116,2.665,4.979,4.979,0,0,0-.288-2.56l-.746.526a3.433,3.433,0,0,1,.161,2.442s.049-2.132-.325-2.311a4.632,4.632,0,0,0-.763.744s.446,1.07.109,1.605c0,0-.118-1.426-.272-1.44a4.692,4.692,0,0,0-.77,1.547,3.426,3.426,0,0,1,.623-1.646,1.888,1.888,0,0,0-.983.447s.132-.66,1.149-.665c0,0,.553-.686.7-.723a4.125,4.125,0,0,0-1.632.105,1.823,1.823,0,0,1,1.825-.251l.737-.542a5.863,5.863,0,0,0-1.893-.077,2.284,2.284,0,0,1,2.091-.044l.795-.423a6.986,6.986,0,0,0-1.8-.247,2.756,2.756,0,0,1,2.032.135l.565-.219s-.823-.205-1.063-.244-.253-.105-.253-.105a2.886,2.886,0,0,1,1.551.253A6.941,6.941,0,0,0,1049.705,437.682Z" transform="translate(-877.191 -370.508)"/><path class="a" d="M914.292,131.949s-5.355-4.006-7.269.333a1.142,1.142,0,0,0-.165,1.33s.2-.282.7.186a3.072,3.072,0,0,0,.586.428,1.507,1.507,0,0,0,.942.175h0s1.993.384,4.29-1.776c0,0,.818-.263.895-.418l-1.205-.218a2.027,2.027,0,0,1-.749,1.288s.77-1.239.57-1.328c-.04-.019-.642-.088-.642-.088a3.335,3.335,0,0,1-1.209,2.132s1.118-1.353.979-2.16l-.918-.049a3.5,3.5,0,0,1-1.251,2.356,4.991,4.991,0,0,0,1.053-2.353l-.909.074a3.373,3.373,0,0,1-1.1,2.184s1.123-1.811.891-2.155a4.41,4.41,0,0,0-1.035.254s-.158,1.147-.719,1.439c0,0,.621-1.29.495-1.379a4.716,4.716,0,0,0-1.449.942,3.427,3.427,0,0,1,1.372-1.1,1.89,1.89,0,0,0-1.074-.112s.447-.5,1.328.009a4.411,4.411,0,0,1,.963-.272,4.106,4.106,0,0,0-1.46-.735,1.827,1.827,0,0,1,1.7.7l.911-.093a5.978,5.978,0,0,0-1.593-1.025s.847-.107,1.825,1.019l.9.04a7.033,7.033,0,0,0-1.426-1.126A2.77,2.77,0,0,1,912.2,131.6l.6.1s-.605-.593-.795-.747-.161-.205-.161-.205a2.884,2.884,0,0,1,1.207,1A7.046,7.046,0,0,0,914.292,131.949Z" transform="translate(-764.335 -117.061)"/><path class="a" d="M940.942,282.98s-1.846-6.427-6-4.12a1.14,1.14,0,0,0-.935.96s.33-.1.444.568a3.114,3.114,0,0,0,.211.7,1.507,1.507,0,0,0,.642.716h0s1.358,1.509,4.492,1.172c0,0,.811.284.965.207l-.83-.9a2.017,2.017,0,0,1-1.374.576s1.362-.526,1.256-.714c-.021-.039-.46-.458-.46-.458a3.324,3.324,0,0,1-2.249.97s1.707-.4,2.083-1.13l-.7-.593a3.506,3.506,0,0,1-2.419,1.123s1.769-.486,2.256-1.242l-.768-.49a3.419,3.419,0,0,1-2.195,1.079s1.988-.767,2.012-1.179a4.38,4.38,0,0,0-.981-.421s-.819.818-1.442.712c0,0,1.274-.654,1.228-.8a4.739,4.739,0,0,0-1.725-.123,3.423,3.423,0,0,1,1.755-.051,1.882,1.882,0,0,0-.79-.737s.66-.132,1.053.807a4.378,4.378,0,0,1,.932.365,4.1,4.1,0,0,0-.719-1.467,1.823,1.823,0,0,1,.928,1.59l.783.475a5.833,5.833,0,0,0-.653-1.779,2.3,2.3,0,0,1,.84,1.914l.7.574a6.959,6.959,0,0,0-.458-1.755,2.772,2.772,0,0,1,.651,1.93l.418.439s-.123-.839-.175-1.077,0-.272,0-.272a2.876,2.876,0,0,1,.36,1.53A6.959,6.959,0,0,0,940.942,282.98Z" transform="translate(-786.848 -239.174)"/><path class="a" d="M703.587,371.511s-3.585-5.646-6.913-2.267a1.135,1.135,0,0,0-.628,1.184s.289-.193.588.421a3,3,0,0,0,.4.607,1.5,1.5,0,0,0,.816.505h0s1.728,1.067,4.641-.14c0,0,.858.046.984-.072l-1.053-.632a2.017,2.017,0,0,1-1.158.939s1.161-.877,1.005-1.039c-.03-.032-.57-.309-.57-.309a3.333,3.333,0,0,1-1.886,1.563s1.525-.868,1.683-1.672l-.84-.37a3.5,3.5,0,0,1-2.005,1.755s1.562-.963,1.816-1.826l-.877-.253s-.74,1.433-1.8,1.653c0,0,1.691-1.295,1.6-1.7a4.359,4.359,0,0,0-1.053-.128s-.556,1.016-1.184,1.09c0,0,1.039-.986.953-1.116a4.727,4.727,0,0,0-1.69.368,3.414,3.414,0,0,1,1.674-.544,1.883,1.883,0,0,0-.963-.486s.595-.311,1.228.479a4.333,4.333,0,0,1,1,.088,4.038,4.038,0,0,0-1.1-1.205s.825.07,1.337,1.265l.886.235a5.865,5.865,0,0,0-1.126-1.523s.83.2,1.344,1.6l.828.351a6.992,6.992,0,0,0-.935-1.558,2.764,2.764,0,0,1,1.167,1.669l.526.3s-.351-.77-.475-.983-.075-.261-.075-.261a2.878,2.878,0,0,1,.774,1.367A7.137,7.137,0,0,0,703.587,371.511Z" transform="translate(-590.623 -313.224)"/><path class="j" d="M838.046,206.424s-3.409-5.753-6.843-2.479a1.141,1.141,0,0,0-.663,1.165s.293-.186.574.437a3.034,3.034,0,0,0,.377.621,1.49,1.49,0,0,0,.8.526h0s1.693,1.119,4.642,0c0,0,.856.072.986-.042l-1.03-.663a2.017,2.017,0,0,1-1.186.9s1.188-.847,1.039-1.007c-.032-.033-.561-.328-.561-.328a3.335,3.335,0,0,1-1.93,1.505s1.551-.821,1.732-1.618l-.828-.389a3.5,3.5,0,0,1-2.06,1.695s1.591-.914,1.872-1.769l-.867-.281s-.786,1.4-1.853,1.6c0,0,1.73-1.242,1.649-1.647a4.334,4.334,0,0,0-1.053-.161s-.588,1-1.218,1.053c0,0,1.069-.951.988-1.084a4.723,4.723,0,0,0-1.7.316,3.425,3.425,0,0,1,1.69-.491,1.886,1.886,0,0,0-.949-.516s.605-.293,1.228.516a4.445,4.445,0,0,1,.995.119,4.2,4.2,0,0,0-1.065-1.239s.821.095,1.3,1.305l.877.263a5.832,5.832,0,0,0-1.079-1.558s.825.226,1.295,1.642l.816.381a7.049,7.049,0,0,0-.877-1.579,2.775,2.775,0,0,1,1.116,1.7l.514.319s-.33-.781-.446-1-.067-.263-.067-.263a2.882,2.882,0,0,1,.732,1.39A6.79,6.79,0,0,0,838.046,206.424Z" transform="translate(-701.524 -176.984)"/><path class="j" d="M723.881,264.345s.175-6.685-4.469-5.743a1.143,1.143,0,0,0-1.183.633s.351,0,.253.676a3.08,3.08,0,0,0-.01.726,1.5,1.5,0,0,0,.395.877h0s.837,1.849,3.927,2.477c0,0,.686.518.858.49l-.526-1.109a2.025,2.025,0,0,1-1.484.132s1.456-.086,1.416-.3c0-.044-.3-.577-.3-.577a3.321,3.321,0,0,1-2.437.244s1.755.132,2.328-.446l-.49-.777a3.5,3.5,0,0,1-2.646.337,4.986,4.986,0,0,0,2.528-.5l-.584-.7a3.421,3.421,0,0,1-2.419.365s2.126-.128,2.281-.516a4.551,4.551,0,0,0-.807-.7s-1.028.526-1.59.242c0,0,1.4-.235,1.412-.391a4.709,4.709,0,0,0-1.607-.639,3.416,3.416,0,0,1,1.693.484,1.886,1.886,0,0,0-.526-.942s.668.075.76,1.088a4.362,4.362,0,0,1,.779.632,4.1,4.1,0,0,0-.242-1.616,1.82,1.82,0,0,1,.4,1.795l.6.691a5.875,5.875,0,0,0-.082-1.893,2.307,2.307,0,0,1,.221,2.079l.486.756a7,7,0,0,0,.1-1.814,2.784,2.784,0,0,1,.035,2.037l.267.544s.135-.837.153-1.081.084-.26.084-.26a2.881,2.881,0,0,1-.121,1.567A6.683,6.683,0,0,0,723.881,264.345Z" transform="translate(-608.927 -222.807)"/><ellipse class="a" cx="4.725" cy="0.798" rx="4.725" ry="0.798" transform="translate(117.907 124.881)"/><ellipse class="a" cx="4.725" cy="0.798" rx="4.725" ry="0.798" transform="translate(100.683 137.001)"/><ellipse class="a" cx="4.725" cy="0.798" rx="4.725" ry="0.798" transform="translate(11.613 130.792)"/><ellipse class="a" cx="4.725" cy="0.798" rx="4.725" ry="0.798" transform="translate(136.521 136.202)"/><ellipse class="j" cx="7.055" cy="1.193" rx="7.055" ry="1.193" transform="translate(139.111 125.679)"/><path class="j" d="M914.331,751.729a2.037,2.037,0,0,0,.672-1.014.9.9,0,0,0-.469-1.033,1.325,1.325,0,0,0-1.244.435,1.667,1.667,0,0,1-1.207.584,1.842,1.842,0,0,0,.568-1.721.721.721,0,0,0-.158-.351c-.24-.256-.674-.146-.961.056a3.581,3.581,0,0,0-1.172,3,5.633,5.633,0,0,1-.016-1.228,1.26,1.26,0,0,0-.465-1.091,1.388,1.388,0,0,0-.7-.175,1.466,1.466,0,0,0-1.147.326,1.131,1.131,0,0,0,.044,1.4,4.537,4.537,0,0,0,1.188.951,2.655,2.655,0,0,1,.849.809.826.826,0,0,1,.061.144h2.572A7.1,7.1,0,0,0,914.331,751.729Z" transform="translate(-765.241 -626.81)"/><path class="m" d="M170.29,777.027s2.693-.082,3.509-.661,4.146-1.268,4.348-.34,4.049,4.613,1.007,4.637-7.069-.474-7.88-.969S170.29,777.027,170.29,777.027Z" transform="translate(-157.124 -649.148)"/><path class="n" d="M179.2,787.166c-3.042.025-7.069-.474-7.88-.969-.618-.375-.863-1.725-.946-2.348h-.089s.175,2.174.981,2.667,4.837.993,7.88.969c.877,0,1.181-.319,1.165-.783C180.193,786.985,179.857,787.161,179.2,787.166Z" transform="translate(-157.124 -655.974)"/></g></svg>