<svg xmlns="http://www.w3.org/2000/svg" width="34.852" height="27.881" viewBox="0 0 34.852 27.881"><defs><style>.a{opacity:0.25;}</style></defs><g class="a" transform="translate(0 -54.821)"><g transform="translate(0 54.821)"><path d="M34,55.674a2.8,2.8,0,0,0-2.051-.853H2.9a2.8,2.8,0,0,0-2.051.853A2.8,2.8,0,0,0,0,57.725V79.8a2.8,2.8,0,0,0,.853,2.051A2.8,2.8,0,0,0,2.9,82.7H31.947a2.913,2.913,0,0,0,2.9-2.9V57.725A2.8,2.8,0,0,0,34,55.674ZM32.528,79.8a.587.587,0,0,1-.581.58H2.9a.588.588,0,0,1-.581-.58V57.725a.588.588,0,0,1,.581-.581H31.947a.588.588,0,0,1,.58.581V79.8Z" transform="translate(0 -54.821)"/><path d="M76.581,134.88a3.47,3.47,0,1,0-2.469-1.016A3.361,3.361,0,0,0,76.581,134.88Z" transform="translate(-68.449 -123.263)"/><path d="M81.8,182.881l-2.9-2.9-5.808,5.808v3.485H98.65v-8.132L91.1,173.587Z" transform="translate(-68.445 -166.036)"/></g></g></svg>