<svg xmlns="http://www.w3.org/2000/svg" xmlns:xlink="http://www.w3.org/1999/xlink" width="58" height="58" viewBox="0 0 58 58"><defs><style>.a{fill:#43a047;}.b{fill:#fff;}.c{filter:url(#a);}</style><filter id="a" x="0" y="0" width="58" height="58" filterUnits="userSpaceOnUse"><feOffset dy="3" input="SourceAlpha"/><feGaussianBlur stdDeviation="3" result="b"/><feFlood flood-opacity="0.161"/><feComposite operator="in" in2="b"/><feComposite in="SourceGraphic"/></filter></defs><g transform="translate(-410 -696)"><g class="c" transform="matrix(1, 0, 0, 1, 410, 696)"><circle class="a" cx="20" cy="20" r="20" transform="translate(9 6)"/></g><g transform="translate(299 713.854)"><path class="b" d="M156.367,41.633l9.3-9.3,3,3-9.3,9.3Zm0,0" transform="translate(-22.306 -30.016)"/><path class="b" d="M132.543,200.535l3.316-.919-2.4-2.4Zm0,0" transform="translate(0 -184.4)"/><path class="b" d="M319.456.734a1.6,1.6,0,0,0-2.253,0l-.676.676,3,3,.676-.676a1.6,1.6,0,0,0,0-2.253Zm0,0" transform="translate(-172.26)"/></g></g></svg>