<svg xmlns="http://www.w3.org/2000/svg" width="14" height="14" viewBox="0 0 14 14"><defs><style>.a{opacity:0.5;}.b{fill:#3e3e3e;}</style></defs><g class="a"><path class="b" d="M6.907,0A7,7,0,1,0,14,6.906,7,7,0,0,0,6.907,0Zm-.021,11.26H6.848a1.019,1.019,0,0,1,.024-2.038h.035a1.019,1.019,0,1,1-.02,2.038Zm2.5-4.97a4.628,4.628,0,0,1-.836.748l-.427.295a1.161,1.161,0,0,0-.429.523,1.082,1.082,0,0,0-.066.438v.069H6l0-.138a1.784,1.784,0,0,1,.269-1.177,6.927,6.927,0,0,1,1.217-.979,1.284,1.284,0,0,0,.288-.295,1.037,1.037,0,0,0,.247-.6,1.178,1.178,0,0,0-.224-.7A.932.932,0,0,0,7,4.171a.88.88,0,0,0-.816.377,1.514,1.514,0,0,0-.247.814v.07H4.252l0-.073a2.556,2.556,0,0,1,1.092-2.2,2.877,2.877,0,0,1,1.582-.415,3.415,3.415,0,0,1,2.041.588A2.038,2.038,0,0,1,9.8,5.085,2.012,2.012,0,0,1,9.391,6.291Z" transform="translate(0 0)"/></g></svg>