<svg xmlns="http://www.w3.org/2000/svg" width="115.245" height="92.196" viewBox="0 0 115.245 92.196"><defs><style>.a{opacity:0.147;}.b{fill:#fff;}</style></defs><g class="a"><path class="b" d="M290.573.332h5.763a5.762,5.762,0,0,1,0,11.525h-5.763a23.072,23.072,0,0,0-23.048,23.049V46.725a14.359,14.359,0,0,1,2.881-.294h17.287A14.422,14.422,0,0,1,302.1,60.835V78.122a14.422,14.422,0,0,1-14.405,14.406H270.406A14.422,14.422,0,0,1,256,78.122V34.905A34.609,34.609,0,0,1,290.573.332Zm0,0" transform="translate(-256 -0.332)"/><path class="b" d="M34.573.332h5.763a5.762,5.762,0,0,1,0,11.525H34.573A23.072,23.072,0,0,0,11.525,34.905V46.725a14.359,14.359,0,0,1,2.881-.294H31.693A14.422,14.422,0,0,1,46.1,60.835V78.122A14.422,14.422,0,0,1,31.693,92.528H14.406A14.422,14.422,0,0,1,0,78.122V34.905A34.609,34.609,0,0,1,34.573.332Zm0,0" transform="translate(69.147 -0.332)"/></g></svg>