<svg xmlns="http://www.w3.org/2000/svg" width="20" height="25.446" viewBox="0 0 20 25.446"><defs><style>.a{fill:#fff;}</style></defs><g transform="translate(-3.656)"><g transform="translate(3.656)"><path class="a" d="M-.3,2.65,2.883.619,6.157-.49,9.18-.129l4.451,2.254,1.933,2.609.824,2.88-.459,4.706-2.052,3.4L11.03,17.8l-1.272.743-.914,1.722-1.2,2.373-.583,1.281-2.126-3.88L3.49,17.8-.154,15.34l-1.86-3.021-.276-4.706Z" transform="translate(3 1)"/><path class="a" d="M13.644,25.446a.372.372,0,0,1-.329-.2l-3.109-5.867a10,10,0,1,1,6.872.011l-3.1,5.855A.372.372,0,0,1,13.644,25.446Zm.012-24.7a9.253,9.253,0,0,0-3.065,17.984.372.372,0,0,1,.206.177l2.848,5.374,2.843-5.363a.374.374,0,0,1,.207-.177A9.253,9.253,0,0,0,13.656.745Z" transform="translate(-3.656)"/></g></g></svg>