<?xml version="1.0" encoding="utf-8"?>
<!-- Generator: Adobe Illustrator 22.1.0, SVG Export Plug-In . SVG Version: 6.00 Build 0)  -->
<svg version="1.1" id="Capa_1" xmlns="http://www.w3.org/2000/svg" xmlns:xlink="http://www.w3.org/1999/xlink" x="0px" y="0px"
	 viewBox="0 0 24 24" style="enable-background:new 0 0 24 24;" xml:space="preserve">
<style type="text/css">
	.st0{fill:#FFFFFF;}
</style>
<path class="st0" d="M22.3,21.1l-5.3-5.5c1.4-1.6,2.1-3.6,2.1-5.7c0-4.9-4-8.9-8.9-8.9S1.3,5,1.3,9.9s4,8.9,8.9,8.9
	c1.8,0,3.6-0.6,5.1-1.6l5.3,5.5c0.2,0.2,0.5,0.4,0.8,0.4c0.3,0,0.6-0.1,0.8-0.3C22.8,22.3,22.8,21.5,22.3,21.1z M10.3,3.3
	c3.6,0,6.6,3,6.6,6.6s-3,6.6-6.6,6.6s-6.6-3-6.6-6.6S6.6,3.3,10.3,3.3z"/>
</svg>
