<?xml version="1.0" encoding="UTF-8"?>
<svg width="18px" height="18px" viewBox="0 0 18 18" version="1.1" xmlns="http://www.w3.org/2000/svg" xmlns:xlink="http://www.w3.org/1999/xlink">
    <!-- Generator: sketchtool 52.6 (67491) - http://www.bohemiancoding.com/sketch -->
    <title>3C00B78A-811E-4B62-A8BF-4DB2BEBBAE8D</title>
    <desc>Created with sketchtool.</desc>
    <g id="1.-Web-Views" stroke="none" stroke-width="1" fill="none" fill-rule="evenodd">
        <g id="Chat" transform="translate(-1296.000000, -942.000000)" fill="#FFFFFF" fill-rule="nonzero">
            <g id="Chat-body" transform="translate(623.000000, 117.000000)">
                <g id="Text-Placeholder" transform="translate(0.000000, 808.000000)">
                    <g id="Group-6-Copy" transform="translate(585.000000, 7.000000)">
                        <path d="M105.769931,10.2364992 C105.535525,10.0018426 105.160476,9.93144563 104.855748,10.0722396 L88.494218,17.3465926 C88.1660497,17.4873866 87.978525,17.8159057 88.0019656,18.1678905 C88.0254062,18.5198754 88.2832527,18.8014632 88.6114209,18.8953259 L95.4091914,20.584853 L97.0969138,27.389893 C97.1906761,27.7184121 97.4719632,27.9765343 97.823572,28 C97.8470126,28 97.8704532,28 97.8938938,28 C98.222062,28 98.5033491,27.8122748 98.6439926,27.5072212 L105.910575,11.128194 C106.074659,10.8466062 106.004337,10.4946214 105.769931,10.2364992 Z M98.1282997,24.6913426 L96.8859485,19.7166238 C96.8156267,19.4115703 96.5812208,19.2003794 96.2999338,19.1299824 L91.3305291,17.8863027 L103.566516,12.4422707 L98.1282997,24.6913426 Z" id="Shape"></path>
                    </g>
                </g>
            </g>
        </g>
    </g>
</svg>