<svg xmlns="http://www.w3.org/2000/svg" width="24" height="24.205" viewBox="0 0 24 24.205"><defs><style>.a{fill:#43a047;}</style></defs><g transform="translate(-2.006)"><g transform="translate(2.006)"><path class="a" d="M21.593,15.384a4.382,4.382,0,0,0-3.445,1.69l-7.49-3.831a4.382,4.382,0,0,0,.169-1.141,4.346,4.346,0,0,0-.2-1.237l7.457-3.813a4.391,4.391,0,1,0-.9-2.643,4.363,4.363,0,0,0,.17,1.145L9.865,9.384a4.407,4.407,0,1,0,.065,5.357l7.454,3.813a4.356,4.356,0,0,0-.2,1.241,4.411,4.411,0,1,0,4.41-4.411Z" transform="translate(-2.006)"/></g></g></svg>