<svg xmlns="http://www.w3.org/2000/svg" width="14" height="13.997" viewBox="0 0 14 13.997"><defs><style>.a{opacity:0.7;}.b{fill:#3e3e3e;}</style></defs><g class="a" transform="translate(0 -0.054)"><g transform="translate(0 0.054)"><path class="b" d="M12.223,7.956a1.777,1.777,0,1,0,0-3.555H7.689l-.4-.793H9.98a1.777,1.777,0,1,0,0-3.555h-8.2a1.777,1.777,0,1,0,0,3.555H4.616l.4.793h-1a1.777,1.777,0,0,0,0,3.555h3.9l-.4.793H2.9a1.777,1.777,0,1,0,0,3.555H5.715v1.747L9.336,12.3H11.1a1.777,1.777,0,1,0,0-3.555h-.917l.4-.793ZM11.4,5.769a.41.41,0,1,1-.41.41A.41.41,0,0,1,11.4,5.769ZM2.6,2.242a.41.41,0,1,1,.41-.41A.41.41,0,0,1,2.6,2.242Zm1.641,0a.41.41,0,1,1,.41-.41A.41.41,0,0,1,4.238,2.242Zm4.922-.82a.41.41,0,1,1-.41.41A.41.41,0,0,1,9.16,1.421ZM4.84,6.589a.41.41,0,1,1,.41-.41A.41.41,0,0,1,4.84,6.589ZM5.879,1.421a.41.41,0,1,1-.41.41A.41.41,0,0,1,5.879,1.421ZM5.536,3.609h.83l.4.793h-.83Zm.945,2.98a.41.41,0,1,1,.41-.41A.41.41,0,0,1,6.48,6.589Zm.629-4.758a.41.41,0,1,1,.41.41A.41.41,0,0,1,7.109,1.831ZM3.719,10.937a.41.41,0,1,1,.41-.41A.41.41,0,0,1,3.719,10.937Zm1.641,0a.41.41,0,1,1,.41-.41A.41.41,0,0,1,5.359,10.937Zm1.641,0a.41.41,0,1,1,.41-.41A.41.41,0,0,1,7,10.937Zm.711-4.758a.41.41,0,1,1,.41.41A.41.41,0,0,1,7.711,6.179Zm.93,4.758a.41.41,0,1,1,.41-.41A.41.41,0,0,1,8.641,10.937Zm.623-2.188h-.83l.4-.793h.83Zm.088-2.57a.41.41,0,1,1,.41.41A.41.41,0,0,1,9.352,6.179Zm.93,3.937a.41.41,0,1,1-.41.41A.41.41,0,0,1,10.281,10.116Z" transform="translate(0 -0.054)"/></g></g></svg>