<svg xmlns="http://www.w3.org/2000/svg" width="14" height="11.372" viewBox="0 0 14 11.372"><defs><style>.a{fill:#fff;}</style></defs><g transform="translate(-0.001 -57.441)"><g transform="translate(0.001 57.441)"><path class="a" d="M14,58.786a5.735,5.735,0,0,1-1.649.452,2.884,2.884,0,0,0,1.262-1.588,5.79,5.79,0,0,1-1.825.7A2.874,2.874,0,0,0,6.9,60.967a8.154,8.154,0,0,1-5.919-3A2.875,2.875,0,0,0,1.865,61.8a2.872,2.872,0,0,1-1.3-.36v.036a2.875,2.875,0,0,0,2.3,2.816,2.908,2.908,0,0,1-.757.1,2.757,2.757,0,0,1-.541-.053,2.873,2.873,0,0,0,2.682,1.995A5.762,5.762,0,0,1,.686,67.56,6.1,6.1,0,0,1,0,67.521a8.118,8.118,0,0,0,4.4,1.292,8.115,8.115,0,0,0,8.171-8.171l-.01-.372A5.735,5.735,0,0,0,14,58.786Z" transform="translate(-0.001 -57.441)"/></g></g></svg>