<?xml version="1.0" encoding="utf-8"?>
<!-- Generator: Adobe Illustrator 22.1.0, SVG Export Plug-In . SVG Version: 6.00 Build 0)  -->
<svg version="1.1" id="Layer_1" xmlns="http://www.w3.org/2000/svg" xmlns:xlink="http://www.w3.org/1999/xlink" x="0px" y="0px"
	 viewBox="0 0 14.3 13" style="enable-background:new 0 0 14.3 13;" xml:space="preserve">
<style type="text/css">
	.st0{fill:#43A047;}
</style>
<g transform="translate(0 0)">
	<g transform="translate(0)">
		<path class="st0" d="M14.3,0h-2.6v7.8h2.6L14.3,0z M0,7.1c0,0.7,0.6,1.3,1.3,1.3h4.1l-0.7,3v0.2c0,0.3,0.1,0.5,0.3,0.7L5.7,13
			L10,8.7c0.3-0.2,0.4-0.6,0.4-0.9V1.3C10.4,0.6,9.8,0,9.1,0H3.2c-0.5,0-1,0.3-1.2,0.8L0.1,5.4C0.1,5.5,0.1,5.7,0.1,5.8L0,7.1L0,7.1
			z"/>
	</g>
</g>
</svg>
