<svg xmlns="http://www.w3.org/2000/svg" width="14.178" height="15.463" viewBox="0 0 14.178 15.463"><defs><style>.a{fill:#fff;}</style></defs><g transform="translate(-13.762)"><path class="a" d="M14.539,296.036l.206-.824-.569-.225-.391.644a1.484,1.484,0,0,1-.024,1.052A1.557,1.557,0,0,1,14.539,296.036Zm-.382-.378a.138.138,0,0,1,.18.073.134.134,0,0,1-.074.177.138.138,0,0,1-.18-.073A.134.134,0,0,1,14.157,295.658Z" transform="translate(0 -281.22)"/><path class="a" d="M37.366,24.089a28.094,28.094,0,0,0-5.6,7.347h0L31.443,32l.339.13.179-.472A25.676,25.676,0,0,1,40.38,22.3a31.028,31.028,0,0,0,3.559-2.544,19.043,19.043,0,0,1-1.738,1.1A35.8,35.8,0,0,0,37.366,24.089Z" transform="translate(-16.856 -18.833)"/><path class="a" d="M26.993,10.051a4.821,4.821,0,0,0-.207,2.6h.225c.622-1.289,3.62-5.959,5.486-7.421a28.21,28.21,0,0,1,4.679-3.039,9.31,9.31,0,0,0,1.3-.838c.495-.39,1-.807,1.435-1.216L38.638.968,39.206.1,38.122,1.2,38.827,0a9.566,9.566,0,0,0-3.216.985,9.031,9.031,0,0,0-1.118,1.9,4.393,4.393,0,0,1,.378-1.469c-.292.134-1.4.768-1.4.768a3.169,3.169,0,0,0-.712,1.636,3.285,3.285,0,0,1,.258-1.369A9.953,9.953,0,0,0,30.33,4.892c-.774,1.519-.138,2.7-.378,2.421s-.189-1.319-.189-1.319c-1.634,1.569-1.806,2.321-1.806,2.321a15.211,15.211,0,0,0-.516,2.454c-.155-.167,0-1.1,0-1.1a2.666,2.666,0,0,0-.206,1.619C27.045,11.219,26.993,10.051,26.993,10.051Z" transform="translate(-12.324)"/><path class="a" d="M60.43,14.191a16.911,16.911,0,0,1-1.435,1.216c-1.264,1-2.481,1.812-2.481,1.812a24.005,24.005,0,0,0-8.3,8.99h.467a4.585,4.585,0,0,1,1.447-.532,5.2,5.2,0,0,0,2.087-1.169,4.526,4.526,0,0,1-1.754.6,4.166,4.166,0,0,0-1.317.145s-.288-.134,1.134-.345a12.933,12.933,0,0,0,3.761-1.8,4.323,4.323,0,0,1-1.307.334c-.413-.034-1.433,0-1.433,0a11.587,11.587,0,0,0,2.339-.456c1.032-.39.975-.356.975-.356a3.012,3.012,0,0,0,1.656-1.6,6.7,6.7,0,0,1-2.388.078,4.927,4.927,0,0,0-1.733,0,2.91,2.91,0,0,1,1.514-.2,7.406,7.406,0,0,0,2.684-.5,4.135,4.135,0,0,0,2.076-1.247l-1.09.146a5.384,5.384,0,0,0,1.515-.591,9.1,9.1,0,0,1-1.262.2,5.751,5.751,0,0,0,1.411-.478,2.962,2.962,0,0,0,1.044-1.6,4.546,4.546,0,0,1-2.156.223,4.533,4.533,0,0,0,2.339-.634c.229-.1.324-.515.324-.515a7.163,7.163,0,0,1-1.78.351,6.05,6.05,0,0,0,1.9-.676v-.518a5.506,5.506,0,0,1-1.092.4l1.084-.7A.622.622,0,0,0,60.43,14.191Z" transform="translate(-32.842 -13.529)"/><path class="a" d="M23.551,284.743,24.2,285l.12-.285-.644-.258Z" transform="translate(-9.332 -271.183)"/><path class="a" d="M32.275,247.357a16.285,16.285,0,0,1-6.9,1.813c-.254.009-.255.262,0,.254a15.855,15.855,0,0,0,6.412-1.52,20.392,20.392,0,0,1,6.9-2.165c.251-.027.144-.271-.105-.245A18.609,18.609,0,0,0,32.275,247.357Z" transform="translate(-10.893 -234.035)"/></g></svg>