<svg xmlns="http://www.w3.org/2000/svg" width="113.954" height="113.267" viewBox="0 0 113.954 113.267"><defs><style>.a{fill:#e5efef;}.b{fill:#fff;}.c{fill:#4c241d;}.d{fill:#6b4f5b;}.e{fill:#e66353;}.f{fill:#e7d1c4;}.g{fill:#fc8c29;}.h{fill:#ffce56;}</style></defs><g transform="translate(-28 -28.736)"><circle class="a" cx="42.966" cy="42.966" r="42.966" transform="translate(35.472 31.785)"/><path class="b" d="M0,0H47.636V31.758H0Z" transform="translate(140.086 117.717) rotate(180)"/><path class="c" d="M211.5,182.759H163.868A1.868,1.868,0,0,1,162,180.891V149.133a1.868,1.868,0,0,1,1.868-1.868H211.5a1.868,1.868,0,0,1,1.868,1.868v31.758A1.868,1.868,0,0,1,211.5,182.759Zm-45.768-3.736h43.9V151h-43.9Z" transform="translate(-71.419 -63.173)"/><path class="d" d="M168,203.265h46.7v7.472H168Z" transform="translate(-74.617 -93.02)"/><path class="c" d="M212.57,210.474h-46.7A1.868,1.868,0,0,1,164,208.605v-7.472a1.868,1.868,0,0,1,1.868-1.868h46.7a1.868,1.868,0,0,1,1.868,1.868v7.472A1.868,1.868,0,0,1,212.57,210.474Zm-44.834-3.736H210.7V203H167.736Z" transform="translate(-72.485 -90.888)"/><path class="c" d="M233.34,167h-7.472a1.868,1.868,0,1,1,0-3.736h7.472a1.868,1.868,0,1,1,0,3.736Z" transform="translate(-104.463 -71.701)"/><path class="c" d="M237.077,179H225.868a1.868,1.868,0,1,1,0-3.736h11.209a1.868,1.868,0,1,1,0,3.736Z" transform="translate(-104.463 -78.097)"/><path class="c" d="M237.077,191H225.868a1.868,1.868,0,1,1,0-3.736h11.209a1.868,1.868,0,0,1,0,3.736Z" transform="translate(-104.463 -84.492)"/><path class="e" d="M128.321,47.292a27.043,27.043,0,0,0-22.7,10.539,26,26,0,0,0-4.511,9.751A33.576,33.576,0,0,0,100,74.351V144.4h54.175V75.07c0-14.606-11.262-27.13-25.854-27.778Z" transform="translate(-38.374 -9.875)"/><path class="c" d="M152.043,144.144H97.868A1.868,1.868,0,0,1,96,142.276V72.222a33.462,33.462,0,0,1,1.164-7.213,27.73,27.73,0,0,1,4.845-10.448A29.11,29.11,0,0,1,126.271,43.3c15.5.687,27.64,13.709,27.64,29.645v69.335A1.868,1.868,0,0,1,152.043,144.144Zm-52.307-3.736h50.438V72.941c0-13.931-10.572-25.313-24.068-25.912a25.292,25.292,0,0,0-21.138,9.813,24.006,24.006,0,0,0-4.174,9.055,31.123,31.123,0,0,0-1.058,6.326v68.185Z" transform="translate(-36.242 -7.745)"/><path class="f" d="M155.251,219.3H88V203.931a17.536,17.536,0,0,1,10.17-16l23.456-10.662,23.456,10.662a17.536,17.536,0,0,1,10.17,16Z" transform="translate(-31.979 -79.163)"/><path class="c" d="M153.119,219.033H85.868A1.868,1.868,0,0,1,84,217.165V201.8a19.423,19.423,0,0,1,11.265-17.7l23.455-10.661a1.863,1.863,0,0,1,1.547,0L143.722,184.1a19.42,19.42,0,0,1,11.265,17.7v15.366A1.868,1.868,0,0,1,153.119,219.033ZM87.736,215.3h63.515V201.8a15.677,15.677,0,0,0-9.076-14.3l-22.681-10.311L96.812,187.5a15.679,15.679,0,0,0-9.076,14.3Z" transform="translate(-29.847 -77.031)"/><path class="f" d="M151.472,186.474A7.472,7.472,0,0,1,144,179v-3.736h14.945V179A7.472,7.472,0,0,1,151.472,186.474Z" transform="translate(-61.825 -78.097)"/><path class="c" d="M149.34,186.21a9.352,9.352,0,0,1-9.34-9.34v-3.736a1.868,1.868,0,0,1,1.868-1.868h14.945a1.868,1.868,0,0,1,1.868,1.868v3.736A9.352,9.352,0,0,1,149.34,186.21ZM143.736,175v1.868a5.6,5.6,0,0,0,11.209,0V175Z" transform="translate(-59.693 -75.965)"/><path class="c" d="M113.868,252.078A1.868,1.868,0,0,1,112,250.21V237.133a1.868,1.868,0,1,1,3.736,0V250.21A1.868,1.868,0,0,1,113.868,252.078Z" transform="translate(-44.77 -110.075)"/><path class="c" d="M205.868,252.078A1.868,1.868,0,0,1,204,250.21V237.133a1.868,1.868,0,1,1,3.736,0V250.21A1.868,1.868,0,0,1,205.868,252.078Z" transform="translate(-93.804 -110.075)"/><path class="f" d="M151.3,101.042c-11.266,6.122-39.185-5.692-40.208-15l-.179.015c.656,13.67-10.109,14.955-10.109,14.955a4.669,4.669,0,0,0-2.8,4.451,4.787,4.787,0,0,0,2.211,3.68,4.16,4.16,0,0,0,3.937.557,25.972,25.972,0,0,0,17.479,19.519,13.047,13.047,0,0,0,8.005-.085l.829-.269a25.975,25.975,0,0,0,17.361-19.185,4.265,4.265,0,0,0,3.909-.444,4.745,4.745,0,0,0,2.271-3.351A4.671,4.671,0,0,0,151.3,101.042Z" transform="translate(-37.309 -30.544)"/><g transform="translate(28 28.736)"><path class="c" d="M123.307,129.567a14.226,14.226,0,0,1-4.378-.683,27.891,27.891,0,0,1-18.318-19.165,5.986,5.986,0,0,1-3.572-1.139,6.626,6.626,0,0,1-3.032-5.164,6.505,6.505,0,0,1,3.917-6.228,1.886,1.886,0,0,1,.527-.143c.358-.047,9.025-1.324,8.463-13.011a1.868,1.868,0,0,1,1.706-1.95,2.054,2.054,0,0,1,2.2,1.641c.3,2.746,4.187,6.385,10.14,9.5,8.6,4.5,21.089,7.449,27.319,4.064a1.858,1.858,0,0,1,1.664-.06A6.529,6.529,0,0,1,153.729,104a6.63,6.63,0,0,1-3.138,4.709,6.208,6.208,0,0,1-3.512,1,27.942,27.942,0,0,1-18.168,18.815l-.83.268A15.441,15.441,0,0,1,123.307,129.567Zm-21.286-23.849a1.867,1.867,0,0,1,1.83,1.493,24.147,24.147,0,0,0,16.223,18.116,11.092,11.092,0,0,0,6.856-.085l.83-.268a24.184,24.184,0,0,0,16.109-17.806,1.868,1.868,0,0,1,2.448-1.364,2.4,2.4,0,0,0,2.3-.267,2.881,2.881,0,0,0,1.4-1.994,2.815,2.815,0,0,0-.958-2.492c-7.912,3.463-20.837.186-29.839-4.521a33.11,33.11,0,0,1-9.078-6.578,13.991,13.991,0,0,1-10.9,10.741,2.792,2.792,0,0,0-1.507,2.59,2.944,2.944,0,0,0,1.388,2.2,2.314,2.314,0,0,0,2.3.335,1.873,1.873,0,0,1,.6-.1Z" transform="translate(-63.178 -57.164)"/><path class="c" d="M34.538,56.342A6.538,6.538,0,1,1,41.077,49.8,6.546,6.546,0,0,1,34.538,56.342Zm0-9.34a2.8,2.8,0,1,0,2.8,2.8A2.8,2.8,0,0,0,34.538,47Z" transform="translate(-28 -36.48)"/><circle class="c" cx="2.115" cy="2.115" r="2.115" transform="translate(105.3 26.153)"/><circle class="c" cx="2.115" cy="2.115" r="2.115" transform="translate(4.423 29.889)"/><circle class="c" cx="2.115" cy="2.115" r="2.115" transform="translate(19.368)"/><path class="c" d="M230.52,56.516a1.868,1.868,0,0,1-1.321-3.189l6.863-6.863a1.868,1.868,0,0,1,2.641,2.641l-6.863,6.863A1.861,1.861,0,0,1,230.52,56.516Z" transform="translate(-134.943 -37.893)"/><path class="c" d="M237.384,56.516a1.863,1.863,0,0,1-1.321-.547L229.2,49.106a1.868,1.868,0,0,1,2.641-2.641l6.863,6.863a1.868,1.868,0,0,1-1.321,3.189Z" transform="translate(-134.944 -37.893)"/><path class="c" d="M62.52,116.516a1.868,1.868,0,0,1-1.321-3.189l6.863-6.863a1.868,1.868,0,0,1,2.641,2.641l-6.863,6.863A1.861,1.861,0,0,1,62.52,116.516Z" transform="translate(-45.403 -69.872)"/><path class="c" d="M69.384,116.516a1.863,1.863,0,0,1-1.321-.547L61.2,109.106a1.868,1.868,0,0,1,2.641-2.641l6.863,6.863a1.868,1.868,0,0,1-1.321,3.189Z" transform="translate(-45.404 -69.872)"/><circle class="c" cx="1.868" cy="1.868" r="1.868" transform="translate(68.185 46.949)"/><path class="c" d="M151.053,153.6a5.611,5.611,0,0,1-3.7-1.394,1.869,1.869,0,0,1,2.467-2.808,1.914,1.914,0,0,0,2.62-.15,1.867,1.867,0,1,1,2.769,2.507A5.612,5.612,0,0,1,151.053,153.6Z" transform="translate(-91.274 -92.637)"/><circle class="c" cx="1.868" cy="1.868" r="1.868" transform="translate(49.504 46.949)"/></g><path class="b" d="M62.417,226.76v-7.452H45.6v7.452h-.911A4.694,4.694,0,0,0,40,231.454v10.251H68.021V231.454a4.694,4.694,0,0,0-4.694-4.694Z" transform="translate(-6.396 -101.57)"/><path class="c" d="M65.889,241.442H37.868A1.868,1.868,0,0,1,36,239.574V229.323a6.574,6.574,0,0,1,5.6-6.493v-5.653a1.868,1.868,0,0,1,1.868-1.868H60.285a1.868,1.868,0,0,1,1.868,1.868v5.653a6.574,6.574,0,0,1,5.6,6.493v10.251A1.868,1.868,0,0,1,65.889,241.442Zm-26.153-3.736H64.021v-8.383A2.829,2.829,0,0,0,61.2,226.5h-.91a1.868,1.868,0,0,1-1.868-1.868v-5.584H45.34v5.584a1.868,1.868,0,0,1-1.868,1.868h-.91a2.829,2.829,0,0,0-2.826,2.826Z" transform="translate(-4.264 -99.439)"/><path class="g" d="M47.962,159.589s7.154-23.251-14.309-32.194C33.653,127.4,26.7,151.619,47.962,159.589Z" transform="translate(-2.433 -52.583)"/><path class="c" d="M45.884,159.324a1.857,1.857,0,0,1-.655-.119c-22.62-8.477-15.523-34.2-15.448-34.458a1.866,1.866,0,0,1,2.514-1.209c22.766,9.486,15.452,34.219,15.375,34.467a1.868,1.868,0,0,1-1.786,1.319Zm-12.994-31.4c-1.029,5.585-2.273,20.435,11.7,26.963C45.649,149.542,47.009,135.106,32.89,127.924Z" transform="translate(-0.357 -50.45)"/><path class="c" d="M56.8,186.6a1.866,1.866,0,0,1-1.842-1.576,66.354,66.354,0,0,0-10.586-26.769,1.868,1.868,0,0,1,2.987-2.245,68.865,68.865,0,0,1,11.289,28.43A1.867,1.867,0,0,1,56.8,186.6Z" transform="translate(-8.529 -67.438)"/><path class="c" d="M59.209,235h-9.34a1.868,1.868,0,1,1,0-3.736h9.34a1.868,1.868,0,1,1,0,3.736Z" transform="translate(-10.66 -107.943)"/><path class="c" d="M142.462,210.97h0a1.866,1.866,0,0,1-1.571-.86l-13.5-21.057a1.868,1.868,0,1,1,3.145-2.016l11.933,18.611,11.579-17.957a1.869,1.869,0,0,1,3.141,2.025l-13.155,20.4A1.871,1.871,0,0,1,142.462,210.97Z" transform="translate(-52.815 -83.912)"/><circle class="h" cx="4.206" cy="4.206" r="4.206" transform="translate(85.441 124.72)"/><path class="c" d="M153.067,242.407a6.074,6.074,0,1,1,6.075-6.074A6.081,6.081,0,0,1,153.067,242.407Zm0-8.412a2.338,2.338,0,1,0,2.339,2.338A2.341,2.341,0,0,0,153.067,234Z" transform="translate(-63.42 -107.407)"/></g></svg>